<?xml version="1.0" standalone="no"?>
<!DOCTYPE svg PUBLIC "-//W3C//DTD SVG 20010904//EN"
 "http://www.w3.org/TR/2001/REC-SVG-20010904/DTD/svg10.dtd">
<svg version="1.0" xmlns="http://www.w3.org/2000/svg"
 width="460.000000pt" height="460.000000pt" viewBox="0 0 460.000000 460.000000"
 preserveAspectRatio="xMidYMid meet">
<metadata>
Created by potrace 1.14, written by Peter Selinger 2001-2017
</metadata>
<g transform="translate(0.000000,460.000000) scale(0.100000,-0.100000)"
fill="#000000" stroke="none">
<path d="M2410 4530 c-49 -4 -92 -16 -125 -32 -27 -14 -76 -30 -108 -37 -63
-14 -77 -29 -77 -83 0 -24 -3 -29 -10 -18 -5 8 -7 33 -4 57 3 30 0 43 -8 44
-7 0 -23 2 -36 3 -31 4 -37 -10 -11 -27 l21 -15 -21 -7 c-11 -3 -20 -12 -18
-18 2 -13 -26 -14 -58 -2 -17 6 -16 5 3 -10 13 -9 32 -15 42 -12 16 4 18 2 10
-13 -13 -25 -33 -30 -55 -14 -10 8 -28 14 -39 14 -11 0 -39 10 -64 21 -56 27
-80 12 -29 -19 19 -11 41 -31 49 -45 7 -13 21 -39 31 -57 10 -17 16 -34 14
-37 -3 -2 -19 20 -36 50 -54 94 -115 116 -201 72 -28 -14 -49 -22 -46 -17 4 6
-8 6 -30 -1 -38 -12 -99 -80 -110 -124 -4 -16 -18 -26 -45 -35 -42 -12 -88
-51 -85 -71 3 -19 37 -67 48 -67 5 0 6 5 2 12 -4 7 -3 8 4 4 7 -4 12 -13 12
-21 0 -7 16 -35 37 -62 20 -26 27 -41 17 -32 -61 50 -89 75 -93 84 -2 6 -12
21 -22 34 l-19 24 0 -35 c0 -21 12 -53 31 -82 16 -27 28 -50 26 -53 -3 -2 -17
7 -33 20 -16 13 -38 26 -49 29 -11 3 -27 9 -36 12 -10 5 -19 1 -22 -8 -4 -10
-1 -13 9 -9 8 3 33 -2 54 -12 31 -14 42 -26 50 -53 5 -20 7 -38 5 -41 -3 -2
-5 1 -5 7 0 18 -51 72 -67 72 -11 0 -7 -7 11 -21 19 -15 26 -30 26 -56 l0 -36
-26 27 c-15 14 -34 26 -43 25 -13 0 -14 -1 -1 -6 18 -7 50 -42 50 -56 0 -5 -8
-6 -17 -2 -10 5 -34 10 -53 12 l-35 4 40 -23 c30 -16 35 -23 22 -26 -9 -2 -15
-8 -11 -13 3 -6 -5 -7 -23 -3 -26 7 -27 6 -14 -10 8 -10 16 -25 17 -34 1 -10
5 -26 9 -37 4 -11 -4 -2 -20 20 -36 52 -39 55 -32 26 4 -18 3 -21 -6 -12 -14
14 -47 15 -47 0 0 -5 -4 -8 -9 -4 -5 3 -21 -18 -36 -47 -24 -49 -25 -51 -20
-18 4 26 3 30 -4 15 -5 -11 -10 -36 -10 -56 -1 -51 -20 -97 -42 -104 -53 -17
-64 -64 -18 -84 34 -15 53 -6 26 13 -24 19 -21 45 7 56 18 6 28 22 37 52 19
73 36 113 47 113 6 0 14 3 18 8 4 4 11 7 17 7 5 0 -3 -14 -18 -32 -15 -18 -24
-39 -22 -50 3 -10 1 -18 -4 -18 -5 0 -9 -10 -9 -22 -1 -13 -7 -40 -14 -60 -8
-21 -10 -38 -6 -38 4 0 12 18 19 40 7 22 23 57 37 77 l24 36 -6 -34 c-4 -19
-13 -52 -20 -74 -8 -22 -14 -54 -14 -71 0 -28 2 -30 29 -26 23 3 32 -1 41 -18
10 -18 9 -24 -1 -31 -7 -4 -17 -5 -21 -3 -4 3 -8 0 -8 -5 0 -24 -18 -8 -36 32
-26 60 -54 86 -54 51 0 -9 -5 -12 -13 -8 -9 6 -9 4 0 -7 14 -14 18 -33 5 -25
-4 2 -9 -5 -9 -16 -2 -20 -1 -20 24 3 14 13 23 19 20 13 -3 -6 5 -22 19 -37
14 -15 22 -31 19 -37 -3 -5 4 -7 15 -5 18 3 20 -1 20 -39 0 -43 -31 -129 -50
-141 -6 -4 -19 -24 -30 -46 -11 -21 -25 -39 -31 -39 -8 0 -8 4 -2 13 17 20 26
70 12 61 -14 -8 -59 -14 -59 -8 0 3 14 10 30 15 33 12 37 25 16 54 -11 16 -17
17 -29 7 -9 -8 -18 -9 -21 -3 -3 5 0 12 6 14 7 3 3 6 -9 6 -26 1 -26 1 -14
-33 6 -13 20 -26 33 -29 18 -3 16 -5 -9 -6 -30 -1 -93 -43 -93 -61 0 -4 17 -6
38 -3 29 4 41 0 56 -16 18 -20 18 -20 -10 -26 -65 -14 -74 -22 -73 -62 1 -28
3 -31 6 -13 3 14 9 29 14 34 14 15 48 -23 55 -61 3 -18 15 -38 25 -44 15 -8
17 -7 12 8 -6 16 -5 16 10 5 36 -30 81 10 90 81 8 58 -6 62 -25 5 -16 -51 -41
-69 -63 -47 -15 14 -14 16 5 15 17 -1 27 13 51 67 32 76 35 92 17 81 -7 -4 -5
1 4 12 9 10 26 41 37 67 12 27 25 46 30 43 5 -3 14 13 20 37 6 23 16 49 22 57
9 12 10 11 4 -5 -3 -11 -11 -40 -18 -65 -6 -25 -19 -54 -29 -66 -19 -22 -25
-49 -8 -39 6 4 8 11 5 16 -4 5 1 9 9 9 12 0 14 -5 6 -26 -6 -14 -10 -35 -10
-48 0 -12 -5 -27 -12 -34 -24 -24 -18 -94 15 -162 35 -75 50 -128 49 -184 0
-28 2 -35 10 -25 6 10 7 4 3 -18 -4 -21 -3 -33 4 -33 6 0 11 -8 11 -18 0 -27
30 -111 43 -119 6 -4 8 2 4 16 -4 18 -3 20 8 11 19 -16 44 -94 52 -160 3 -31
19 -79 34 -109 16 -30 29 -61 29 -69 0 -8 3 -13 6 -9 3 3 -6 42 -21 86 -15 45
-25 86 -23 93 2 6 12 -15 21 -48 17 -57 37 -100 37 -78 0 6 -6 32 -14 57 -8
26 -10 47 -6 47 4 0 3 15 -2 34 -11 36 -4 76 11 60 5 -5 12 -38 15 -74 4 -36
7 -73 8 -82 4 -35 18 -17 18 22 0 49 15 51 34 5 18 -41 36 -135 27 -135 -3 -1
-19 -12 -36 -26 l-30 -24 33 11 c36 12 57 3 29 -12 -9 -6 -17 -15 -17 -20 0
-6 6 -7 13 -3 8 6 8 3 -1 -9 -17 -21 -9 -34 33 -51 26 -11 36 -24 46 -55 7
-23 19 -47 27 -53 13 -11 14 -8 7 22 -4 19 -16 60 -27 90 -89 253 -108 327
-108 426 0 71 -16 181 -68 459 -22 116 -23 388 -3 460 19 65 39 109 76 168 27
43 33 47 69 47 37 0 39 1 20 15 -23 17 -12 20 19 4 18 -9 20 -9 10 2 -20 20
-16 25 27 39 64 21 207 -5 169 -32 -10 -6 -7 -7 10 -3 16 5 21 4 17 -4 -5 -7
-1 -8 11 -4 15 6 16 4 6 -8 -10 -13 -10 -16 2 -16 8 0 12 4 9 9 -3 4 0 8 7 8
7 0 5 8 -7 21 -19 22 -19 22 4 10 12 -6 22 -8 22 -4 0 4 14 23 30 40 17 18 30
35 30 38 0 3 0 9 0 14 0 6 17 8 38 5 20 -2 31 -2 25 2 -9 4 -8 12 4 31 14 21
15 31 5 57 l-11 31 18 -22 c15 -18 20 -20 25 -8 3 8 13 15 22 15 13 0 14 3 5
14 -13 16 -10 16 104 19 39 0 62 3 52 5 -9 2 -15 7 -13 11 3 4 0 13 -6 21 -8
12 -9 11 -4 -3 4 -14 1 -18 -11 -15 -21 4 -21 19 0 32 12 8 21 4 37 -17 12
-15 27 -27 33 -27 7 0 6 4 -3 11 -11 7 -2 9 32 6 26 -2 45 0 43 4 -7 11 23 19
42 12 10 -4 14 -2 10 4 -4 6 1 14 10 17 9 4 20 1 24 -5 10 -17 80 -15 117 4
24 11 32 12 32 3 0 -8 14 -11 40 -10 28 1 38 -2 33 -10 -4 -6 0 -5 9 2 19 15
126 13 145 -3 6 -5 30 -21 52 -35 42 -25 55 -44 24 -34 -16 5 -16 4 0 -6 15
-10 16 -14 5 -28 -12 -15 -11 -16 5 -3 13 11 17 11 17 1 0 -8 3 -10 6 -7 4 4
1 13 -6 22 -28 33 4 12 41 -27 25 -28 39 -51 39 -69 0 -18 9 -35 26 -48 22
-17 24 -23 14 -36 -7 -8 -8 -15 -2 -15 14 0 21 -50 11 -78 -8 -21 -7 -23 5
-13 11 9 16 9 22 0 4 -7 3 -9 -4 -5 -5 3 -12 0 -15 -6 -5 -18 3 -48 14 -48 5
0 9 -5 9 -12 0 -6 11 -25 24 -42 12 -17 30 -45 39 -63 9 -17 39 -57 67 -89 33
-38 59 -82 79 -133 36 -95 97 -349 111 -458 5 -46 17 -97 26 -115 13 -25 16
-62 16 -182 0 -83 -5 -171 -11 -196 -13 -56 -13 -63 -2 -56 5 4 13 25 17 49 4
23 8 44 9 47 0 3 5 23 9 45 l8 40 14 -45 c8 -25 19 -103 26 -173 12 -132 5
-252 -23 -407 -19 -101 -22 -53 -5 67 8 60 18 140 22 179 6 69 5 72 -23 104
-24 27 -34 32 -56 26 -15 -3 -27 -12 -27 -20 0 -7 -12 -47 -26 -87 -20 -59
-26 -95 -28 -179 -2 -108 -28 -214 -62 -247 -8 -8 -12 -19 -9 -24 4 -5 2 -9
-4 -9 -5 0 -15 -16 -21 -35 -7 -21 -16 -32 -22 -29 -7 4 -8 2 -4 -4 10 -16
-24 -83 -37 -75 -6 4 -8 0 -4 -10 7 -19 -3 -23 -19 -7 -6 6 -10 3 -10 -9 0
-11 4 -17 8 -15 31 19 -13 -29 -93 -102 -40 -37 -63 -64 -79 -93 -6 -12 -15
-19 -20 -16 -6 3 -7 0 -4 -8 3 -8 1 -18 -5 -22 -6 -3 -11 -16 -11 -29 0 -12
-3 -26 -7 -30 -8 -7 -9 -11 -12 -37 0 -5 -6 -7 -13 -3 -8 5 -9 2 -5 -9 3 -10
2 -17 -3 -17 -5 0 -12 -9 -15 -20 -15 -46 -109 -66 -203 -43 -49 12 -60 18
-52 28 8 10 8 15 -1 21 -7 4 -9 3 -6 -3 4 -6 0 -13 -8 -17 -8 -3 -15 -1 -15 5
0 6 -4 8 -9 5 -14 -9 -71 62 -71 89 0 13 10 31 22 39 19 14 20 16 4 22 -10 4
-15 13 -12 21 3 8 2 12 -2 10 -4 -3 -23 4 -42 15 l-35 20 40 -6 c119 -18 190
-18 250 3 33 11 52 20 42 20 -10 1 -16 5 -12 10 3 6 -10 8 -34 5 -23 -3 -42 0
-46 6 -4 7 -1 10 6 9 8 -2 29 5 47 14 18 10 38 15 44 11 6 -4 8 -3 4 4 -3 5
-3 12 1 14 5 2 19 16 32 31 25 27 25 27 3 24 -12 -2 -32 -13 -45 -25 -25 -24
-87 -46 -87 -32 0 5 6 11 13 13 9 4 9 6 -1 6 -7 1 -15 -5 -18 -13 -10 -27
-124 -43 -230 -32 -54 6 -117 34 -108 48 5 7 2 9 -8 5 -16 -6 -52 25 -61 53
-2 8 -3 3 -1 -13 3 -25 2 -26 -16 -17 -18 10 -24 22 -21 43 0 4 -3 7 -8 7 -5
0 -17 3 -27 7 -16 6 -15 3 4 -21 12 -16 22 -35 22 -42 0 -8 5 -14 12 -14 6 0
9 -3 5 -6 -12 -12 -111 52 -146 96 -45 57 -93 105 -151 152 -121 97 -270 270
-285 331 -9 36 -23 43 -41 21 -13 -17 -14 -15 -8 20 5 26 3 37 -4 32 -20 -12
-30 -157 -16 -248 6 -43 9 -48 14 -28 5 20 8 15 14 -28 4 -29 4 -58 0 -64 -4
-7 -3 -8 4 -4 7 4 13 -7 17 -31 17 -104 105 -313 178 -425 19 -29 76 -120 128
-203 81 -131 190 -290 209 -305 3 -3 28 -34 55 -70 57 -76 168 -186 315 -312
58 -50 118 -106 133 -124 l28 -34 105 0 c91 0 105 2 110 18 15 47 22 55 17 19
l-6 -37 807 0 806 0 -2 619 -3 619 -25 28 -25 27 28 -18 c27 -17 27 -17 27 9
0 19 -9 31 -37 46 l-38 21 38 -6 c33 -5 38 -4 35 11 -2 12 -17 21 -41 26 -87
18 -222 115 -274 197 -19 31 -44 66 -56 79 -23 25 -20 27 19 12 55 -21 228
-50 238 -40 6 6 6 10 2 10 -4 0 -51 9 -104 19 -54 10 -116 22 -140 25 -24 4
-76 22 -115 40 -68 32 -133 50 -270 77 -52 10 -67 18 -130 78 -61 58 -116 99
-118 89 0 -2 -2 -23 -5 -48 -24 -212 -63 -433 -93 -520 -10 -30 -29 -91 -41
-135 -12 -44 -31 -107 -40 -140 -10 -33 -26 -87 -35 -120 -44 -154 -111 -347
-145 -415 -37 -74 -49 -97 -106 -195 -26 -44 -65 -121 -103 -205 -11 -24 -11
-24 -5 5 6 31 62 147 108 225 72 121 156 315 194 450 6 19 31 107 57 195 26
88 49 169 52 180 3 11 20 70 38 130 35 120 79 354 95 505 11 108 4 259 -14
331 l-13 49 24 -26 c20 -22 30 -25 56 -20 17 4 38 13 45 20 12 12 8 12 -27 3
-35 -9 -43 -8 -61 8 -11 10 -20 24 -20 31 0 6 -11 22 -24 35 -14 13 -22 28
-18 34 3 5 6 35 6 67 1 33 5 57 11 55 6 -1 9 -5 7 -9 -1 -5 2 -8 8 -8 5 0 10
-6 10 -12 1 -34 65 -82 123 -92 21 -4 46 -10 55 -13 15 -4 15 -3 2 6 -11 8 -1
11 43 11 31 0 57 3 57 8 0 4 -15 7 -32 7 -18 0 -60 6 -94 13 -69 14 -137 64
-148 107 -4 14 -10 23 -15 20 -5 -2 -12 2 -15 10 -5 13 -2 14 15 4 30 -15 56
-44 52 -56 -2 -5 2 -15 9 -20 18 -15 160 -65 166 -59 6 6 -69 40 -128 57 -22
7 -40 16 -40 21 0 5 9 4 19 -2 32 -17 31 -12 -8 28 -40 43 -88 116 -68 107 6
-4 5 -1 -4 7 -11 9 -14 26 -12 58 5 76 5 82 -12 100 -9 10 -28 21 -42 25 -14
3 -23 9 -19 12 3 3 -1 11 -8 17 -8 6 -17 27 -21 46 l-6 35 21 -42 c12 -23 37
-54 56 -68 50 -38 84 -74 84 -89 0 -7 24 -37 53 -68 48 -51 57 -57 115 -66 39
-7 70 -8 80 -2 9 5 35 17 57 26 46 20 87 53 79 65 -2 4 -28 -3 -57 -16 -47
-21 -84 -29 -129 -26 -20 1 -88 66 -88 84 0 7 6 19 13 26 10 11 9 12 -2 6 -11
-6 -13 -4 -8 9 4 10 7 45 7 79 0 44 3 58 10 47 5 -8 10 -27 10 -42 0 -16 5
-28 10 -28 14 0 13 76 -2 103 -6 12 -22 32 -35 45 -13 12 -20 22 -15 22 10 0
28 67 35 132 3 21 1 35 -4 32 -12 -7 -143 62 -166 88 -18 20 -17 20 17 -1 48
-29 73 -27 35 3 -16 13 -33 22 -36 20 -7 -4 -36 28 -60 66 -36 58 -111 292
-97 305 3 3 13 -28 22 -67 25 -102 60 -171 118 -230 57 -57 148 -123 148 -105
-1 21 -24 43 -66 65 -22 11 -47 29 -54 39 -12 15 -12 16 0 6 8 -7 25 -13 38
-13 13 0 31 -4 41 -9 13 -7 17 -5 17 10 0 13 -9 22 -26 25 -14 3 -37 10 -51
15 -29 11 -119 102 -119 120 0 6 8 3 18 -8 9 -10 14 -14 10 -9 -5 6 -8 17 -8
26 1 13 2 13 10 0 5 -9 10 -22 12 -29 7 -33 95 -98 110 -83 8 8 3 13 -15 17
-26 7 -74 51 -65 60 2 3 27 -11 53 -30 48 -33 76 -71 82 -109 2 -10 8 -26 14
-35 8 -12 9 -5 4 28 -7 54 -51 138 -79 153 -20 11 -20 10 -6 -8 8 -10 -4 -4
-28 15 -39 30 -58 54 -61 74 -1 4 -4 7 -8 6 -4 0 -11 8 -15 18 -5 11 -6 3 -3
-19 3 -21 1 -38 -4 -38 -5 0 -13 26 -17 58 -4 31 -13 75 -21 96 -7 22 -15 85
-17 140 -4 107 -1 98 24 -75 5 -37 17 -81 27 -99 17 -32 85 -102 91 -95 8 7
-31 55 -50 61 -11 3 -17 12 -14 19 3 8 0 16 -7 19 -7 2 -5 5 5 5 9 1 20 -8 23
-19 3 -11 15 -24 25 -30 15 -8 14 -1 -10 48 -38 75 -67 164 -79 240 -15 92
-86 244 -146 310 -50 55 -163 121 -210 123 -15 0 -16 2 -5 7 8 4 16 15 18 25
2 14 -5 17 -50 17 -44 1 -50 3 -34 12 25 14 161 5 209 -15 20 -9 37 -14 37
-12 0 10 -58 33 -99 40 -45 7 -189 74 -161 74 8 0 26 -6 40 -14 32 -19 46 -19
30 -1 -6 8 -31 22 -55 32 -44 16 -52 15 -117 -11 -13 -5 -15 -2 -11 17 6 22 6
23 -14 5 -27 -24 -76 -37 -148 -41 l-60 -3 40 17 c22 10 65 24 95 31 54 12 88
29 59 29 -12 0 -12 2 0 9 11 7 4 12 -26 21 -32 10 -53 10 -99 0 -107 -22 -149
-23 -167 -6 -17 17 -69 19 -207 6z m77 -36 c-3 -3 -12 -4 -19 -1 -8 3 -5 6 6
6 11 1 17 -2 13 -5z m-82 -24 c-16 -11 -37 -20 -45 -20 -8 0 -2 9 15 20 17 11
37 20 45 20 8 0 2 -9 -15 -20z m328 3 c-7 -2 -19 -2 -25 0 -7 3 -2 5 12 5 14
0 19 -2 13 -5z m-688 -73 c3 -5 1 -10 -4 -10 -6 0 -11 5 -11 10 0 6 2 10 4 10
3 0 8 -4 11 -10z m930 -29 l40 -9 -35 0 c-19 0 -46 4 -60 8 -20 6 -21 8 -5 8
11 1 38 -3 60 -7z m-1055 -36 c17 -9 30 -21 30 -27 0 -7 -7 -5 -17 4 -10 8
-27 20 -38 26 -31 17 -8 14 25 -3z m-133 -35 c22 -28 22 -31 5 -16 -19 16 -22
17 -28 3 -3 -8 0 -26 6 -39 11 -22 11 -22 -5 -3 -35 42 -37 55 -13 56 13 0 17
3 10 6 -21 8 -71 -17 -65 -33 3 -8 -1 -14 -11 -14 -23 0 -20 27 8 55 32 32 62
28 93 -15z m-209 -56 c-6 -23 -21 -47 -32 -54 -17 -10 -19 -10 -8 1 6 7 12 21
12 31 0 18 29 72 36 66 1 -2 -2 -22 -8 -44z m232 -9 c0 -8 -2 -15 -4 -15 -2 0
-6 7 -10 15 -3 8 -1 15 4 15 6 0 10 -7 10 -15z m1045 -55 c-21 -22 -41 -37
-44 -34 -5 5 67 74 78 74 3 0 -12 -18 -34 -40z m-1269 -19 c-3 -5 1 -11 9 -15
9 -3 15 -18 15 -34 0 -16 5 -42 10 -59 12 -32 -1 -83 -20 -83 -6 0 -24 21 -40
46 -16 26 -43 62 -60 80 -34 38 -32 42 7 17 26 -17 27 -17 20 0 -4 10 -3 16 2
12 5 -3 17 -28 26 -56 13 -38 20 -48 29 -39 14 14 15 109 1 112 -5 0 -14 2
-20 3 -5 2 -16 3 -23 4 -23 2 -5 16 23 19 14 1 24 -2 21 -7z m80 -53 c1 -13 5
-34 8 -48 4 -15 1 -11 -9 9 -9 19 -13 41 -11 48 8 19 11 16 12 -9z m-218 0 c7
-7 12 -21 12 -33 0 -27 29 -67 42 -59 7 4 8 2 4 -5 -4 -6 9 -31 31 -58 l38
-47 -33 20 c-38 22 -72 64 -91 112 -8 18 -23 39 -35 48 -18 12 -19 16 -6 24
20 13 24 12 38 -2z m-48 -138 c6 -11 8 -20 6 -20 -3 0 -10 9 -16 20 -6 11 -8
20 -6 20 3 0 10 -9 16 -20z m28 -55 c-3 -3 -9 2 -12 12 -6 14 -5 15 5 6 7 -7
10 -15 7 -18z m122 -26 c13 -7 13 -8 0 -8 -8 0 -26 6 -40 15 l-25 15 25 -7
c14 -3 32 -10 40 -15z m523 -145 c-5 -13 -23 -20 -23 -10 0 2 -3 11 -6 19 -4
12 0 14 15 10 12 -3 17 -11 14 -19z m-893 -71 c-8 -3 -22 -11 -30 -17 -13 -10
-13 -9 -1 7 7 9 21 17 30 16 13 0 14 -1 1 -6z m37 -19 c-3 -3 -12 -4 -19 -1
-8 3 -5 6 6 6 11 1 17 -2 13 -5z m2262 -139 c-1 -21 -27 63 -33 105 -4 34 -1
28 14 -25 11 -38 19 -74 19 -80z m55 130 c3 -8 1 -15 -4 -15 -6 0 -10 7 -10
15 0 8 2 15 4 15 2 0 6 -7 10 -15z m-125 -310 c23 -43 41 -81 41 -83 0 -12
-41 49 -62 94 -57 118 -42 111 21 -11z m49 -36 c-3 -8 -7 -3 -11 10 -4 17 -3
21 5 13 5 -5 8 -16 6 -23z m32 -114 c0 -5 -5 -3 -10 5 -5 8 -10 20 -10 25 0 6
5 3 10 -5 5 -8 10 -19 10 -25z m7 -37 c-3 -8 -6 -5 -6 6 -1 11 2 17 5 13 3 -3
4 -12 1 -19z m-2247 -59 c-11 -38 -20 -49 -20 -25 0 17 17 56 25 56 2 0 0 -14
-5 -31z m2465 21 c4 -6 3 -10 -2 -9 -4 1 -16 -1 -26 -6 -10 -4 -21 -5 -24 -1
-5 4 15 16 44 25 1 1 5 -4 8 -9z m-20 -66 c17 23 20 14 5 -15 -16 -29 -35 -23
-61 19 -36 57 -35 61 5 17 36 -39 37 -39 51 -21z m-136 -29 c0 -11 -6 -2 -14
20 -18 50 -18 57 0 25 8 -14 14 -34 14 -45z m-2310 1 c-7 -21 -16 -31 -20 -25
-6 11 22 72 29 64 2 -2 -2 -20 -9 -39z m54 -11 c-15 -24 -29 -42 -31 -40 -6 6
40 85 50 85 4 0 -5 -20 -19 -45z m-213 -25 c-6 -11 -15 -20 -20 -20 -6 0 -2 9
7 20 10 11 19 20 21 20 1 0 -2 -9 -8 -20z m2575 -41 c33 -74 47 -122 34 -114
-11 8 -40 62 -37 72 1 8 -15 51 -32 84 -6 10 -7 19 -2 19 5 0 22 -27 37 -61z
m-2451 -4 c5 -22 4 -26 -4 -15 -5 8 -10 24 -10 34 0 26 6 18 14 -19z m93 -171
c5 -32 6 -70 3 -84 -4 -17 -8 -4 -13 45 -4 39 -10 86 -12 105 -4 27 -3 30 4
14 5 -11 13 -47 18 -80z m2210 -76 c-3 -8 -6 -5 -6 6 -1 11 2 17 5 13 3 -3 4
-12 1 -19z m-21 -894 c11 -54 13 -85 6 -116 l-10 -43 -1 45 c-1 25 -8 77 -17
115 -8 39 -17 86 -20 105 l-4 35 15 -33 c9 -19 23 -67 31 -108z m326 -45 c14
-20 17 -54 20 -221 4 -235 -13 -244 -23 -13 -4 83 -10 161 -14 175 -6 24 -6
24 9 6 9 -11 16 -17 16 -14 0 21 -24 62 -57 100 l-38 43 35 -26 c19 -14 42
-37 52 -50z m-2141 -29 c-8 -72 -8 -73 -10 -20 -1 50 7 105 14 98 2 -2 0 -37
-4 -78z m2369 -30 c-14 -4 -41 -8 -60 -8 -32 0 -33 1 -10 8 14 4 41 8 60 8 32
0 33 -1 10 -8z m-565 -139 c-7 -44 -18 -88 -25 -98 -11 -17 -11 -17 -6 0 3 10
11 48 17 85 13 75 17 92 22 92 2 0 -1 -36 -8 -79z m30 -13 c-4 -29 -12 -62
-16 -73 -8 -17 -9 -17 -5 5 3 14 8 46 11 73 4 26 9 47 12 47 3 0 2 -24 -2 -52z
m1048 -381 c6 -42 -10 -64 -29 -40 -12 16 -12 15 -7 -7 3 -14 10 -30 15 -37 5
-6 6 -28 2 -48 l-7 -37 -28 56 c-23 45 -27 61 -19 76 6 11 15 20 20 20 14 0
12 74 -2 90 -7 8 1 2 18 -13 19 -17 34 -42 37 -60z m7 73 c0 -5 -2 -10 -4 -10
-3 0 -8 5 -11 10 -3 6 -1 10 4 10 6 0 11 -4 11 -10z m-102 -179 c21 -13 42
-60 42 -95 0 -36 -48 -215 -63 -234 -8 -10 -14 -6 -27 15 -15 26 -15 32 1 93
31 116 41 210 24 222 -14 11 7 10 23 -1z m-1756 -226 c35 -13 80 -19 131 -20
l79 0 60 65 c33 36 50 50 37 31 -66 -99 -133 -138 -214 -122 -116 23 -187 58
-228 113 -45 62 -41 63 20 8 38 -34 82 -63 115 -75z m94 -75 c18 0 36 -4 39
-10 3 -5 12 -10 18 -10 7 0 6 4 -3 10 -13 9 -13 10 0 10 8 0 21 -4 29 -9 11
-7 7 -14 -20 -31 -63 -39 -168 -17 -216 46 l-24 32 72 -19 c40 -10 87 -19 105
-19z m1634 -100 c0 -14 -10 -38 -21 -55 -12 -16 -18 -21 -14 -10 4 11 10 42
13 68 5 50 22 47 22 -3z m-1660 -120 c0 -5 -5 -10 -11 -10 -5 0 -7 5 -4 10 3
6 8 10 11 10 2 0 4 -4 4 -10z m47 -237 c-3 -10 -5 -2 -5 17 0 19 2 27 5 18 2
-10 2 -26 0 -35z m192 -172 c-6 -18 -13 -30 -15 -28 -2 2 1 18 7 36 6 18 13
30 15 28 2 -2 -1 -18 -7 -36z"/>
<path d="M3270 4286 c0 -2 19 -16 43 -31 23 -15 53 -39 66 -53 l23 -27 -18 33
c-20 36 -114 100 -114 78z"/>
<path d="M2508 3863 c6 -2 18 -2 25 0 6 3 1 5 -13 5 -14 0 -19 -2 -12 -5z"/>
<path d="M2870 3866 c0 -2 8 -10 18 -17 15 -13 16 -12 3 4 -13 16 -21 21 -21
13z"/>
<path d="M2775 3850 c3 -5 8 -10 11 -10 2 0 4 5 4 10 0 6 -5 10 -11 10 -5 0
-7 -4 -4 -10z"/>
<path d="M2837 3829 c7 -7 15 -10 18 -7 3 3 -2 9 -12 12 -14 6 -15 5 -6 -5z"/>
<path d="M2198 3823 c7 -3 16 -2 19 1 4 3 -2 6 -13 5 -11 0 -14 -3 -6 -6z"/>
<path d="M2876 3808 c3 -5 10 -6 15 -3 13 9 11 12 -6 12 -8 0 -12 -4 -9 -9z"/>
<path d="M2917 3799 c7 -7 15 -10 18 -7 3 3 -2 9 -12 12 -14 6 -15 5 -6 -5z"/>
<path d="M3020 3695 c0 -5 5 -17 10 -25 5 -8 10 -10 10 -5 0 6 -5 17 -10 25
-5 8 -10 11 -10 5z"/>
<path d="M135 3667 c-11 -8 -24 -16 -30 -18 -5 -2 -10 -12 -9 -21 0 -10 -3
-18 -6 -18 -4 0 -10 -26 -13 -57 -4 -32 -8 -71 -11 -87 -7 -50 3 -54 224 -87
180 -26 170 -28 174 24 1 6 4 14 8 17 9 7 26 142 20 159 -2 6 -8 9 -12 6 -5
-3 -11 -1 -15 5 -3 6 4 10 16 10 15 0 20 3 13 10 -8 8 -70 22 -234 50 -36 6
-74 14 -85 16 -11 3 -29 -2 -40 -9z m124 -49 c-5 -10 -14 -18 -20 -18 -6 0 -8
-4 -4 -9 3 -5 1 -12 -5 -16 -6 -4 -8 -10 -5 -15 3 -4 -2 -13 -10 -20 -12 -10
-18 -10 -30 0 -16 14 -35 6 -35 -16 0 -12 -6 -16 -26 -13 -4 0 -10 -5 -15 -12
-4 -7 -5 7 -2 32 9 74 23 87 96 89 9 1 16 4 13 8 -2 4 9 7 24 7 24 0 27 -3 19
-17z m88 7 c49 -10 60 -30 23 -45 -27 -11 -33 -10 -52 6 -12 11 -18 13 -13 5
6 -11 4 -13 -10 -7 -15 5 -16 4 -5 -9 7 -8 16 -12 21 -9 5 3 9 -6 9 -20 0 -20
-5 -26 -21 -26 -11 0 -17 -4 -14 -10 11 -17 -7 -11 -20 7 -10 13 -10 23 -2 38
6 11 12 22 12 25 0 3 6 15 13 27 9 17 9 23 -1 27 -6 3 -3 4 8 2 11 -3 34 -7
52 -11z m89 -55 c8 0 19 -11 24 -25 19 -50 -43 -181 -74 -156 -6 5 -19 7 -28
6 -10 -2 -20 5 -23 16 -4 10 -12 19 -18 19 -27 1 31 24 60 25 18 0 33 5 34 10
1 6 5 21 10 34 8 20 7 22 -8 16 -10 -4 -27 -8 -38 -9 -19 -1 -20 3 -16 49 0 8
12 17 26 21 14 3 26 11 26 18 1 6 3 3 6 -6 2 -10 11 -18 19 -18z m14 20 c0 -5
-5 -10 -11 -10 -5 0 -7 5 -4 10 3 6 8 10 11 10 2 0 4 -4 4 -10z m-251 -110 c4
0 15 -16 24 -35 16 -34 7 -51 -11 -20 -9 17 -55 23 -92 11 -16 -5 -20 -4 -12
2 8 5 13 13 11 18 -3 12 43 35 59 29 8 -3 17 -5 21 -5z m206 -10 c3 -5 1 -10
-4 -10 -6 0 -11 5 -11 10 0 6 2 10 4 10 3 0 8 -4 11 -10z m-85 -60 c8 -5 12
-11 10 -14 -3 -2 -14 2 -24 10 -22 15 -10 19 14 4z"/>
<path d="M330 3590 c0 -5 5 -10 11 -10 5 0 7 5 4 10 -3 6 -8 10 -11 10 -2 0
-4 -4 -4 -10z"/>
<path d="M2015 3660 c-3 -6 1 -7 9 -4 18 7 21 14 7 14 -6 0 -13 -4 -16 -10z"/>
<path d="M1830 3610 c-13 -8 -12 -10 3 -10 9 0 17 5 17 10 0 12 -1 12 -20 0z"/>
<path d="M2007 3603 c-4 -3 -7 -11 -7 -17 0 -6 5 -5 12 2 6 6 9 14 7 17 -3 3
-9 2 -12 -2z"/>
<path d="M554 3592 c-6 -4 -16 -36 -23 -72 -7 -36 -15 -73 -18 -82 -3 -13 0
-16 12 -12 10 4 15 2 13 -6 -2 -8 14 -18 40 -24 36 -9 41 -13 30 -24 -11 -11
-8 -18 17 -38 17 -13 39 -26 50 -28 83 -17 197 -36 212 -36 25 0 39 26 48 87
5 42 4 51 -8 50 -8 -1 -34 16 -58 38 -62 56 -89 75 -55 37 35 -37 29 -50 -14
-32 -17 7 -33 10 -37 7 -10 -10 18 -37 38 -37 28 0 33 -20 10 -41 -12 -11 -21
-17 -21 -13 0 4 -9 -2 -20 -14 -24 -26 -75 -29 -100 -7 -16 15 -16 18 3 59 16
36 23 42 46 40 17 -2 19 -1 6 2 -11 4 -25 10 -30 14 -6 5 -29 -4 -54 -21 -65
-43 -75 -35 -25 19 24 26 44 53 44 60 0 7 4 11 9 8 5 -4 11 -1 13 6 3 7 29 12
69 12 50 1 71 -4 94 -20 17 -12 35 -20 40 -18 6 1 22 5 38 8 61 14 24 25 -223
70 -93 18 -129 19 -146 8z m334 -237 c0 -24 -12 -33 -22 -17 -7 12 5 53 14 47
4 -3 8 -16 8 -30z"/>
<path d="M1969 3580 c-1 -5 -2 -15 -3 -20 0 -6 -8 -15 -16 -20 -9 -6 -10 -10
-3 -10 6 0 15 6 20 13 9 15 15 47 8 47 -3 0 -6 -4 -6 -10z"/>
<path d="M3060 3570 c0 -5 7 -7 15 -4 8 4 15 8 15 10 0 2 -7 4 -15 4 -8 0 -15
-4 -15 -10z"/>
<path d="M1688 3553 c7 -3 16 -2 19 1 4 3 -2 6 -13 5 -11 0 -14 -3 -6 -6z"/>
<path d="M902 3486 c7 -8 15 -12 17 -11 5 6 -10 25 -20 25 -5 0 -4 -6 3 -14z"/>
<path d="M3610 3479 c0 -5 -6 -7 -12 -3 -7 4 -9 3 -5 -1 13 -15 36 -14 30 1
-6 17 -13 18 -13 3z"/>
<path d="M1911 3400 c-9 -5 -4 -7 13 -7 29 0 32 2 13 10 -8 3 -20 2 -26 -3z"/>
<path d="M52 3356 c-21 -27 -49 -167 -37 -186 6 -9 9 -9 15 0 5 8 9 7 14 -5 5
-14 2 -16 -19 -11 -20 5 -25 3 -25 -13 0 -15 9 -22 38 -26 20 -4 92 -18 160
-31 134 -26 207 -30 218 -13 4 6 12 44 19 83 7 39 16 88 20 108 6 32 5 37 -12
36 -14 -2 -18 -9 -17 -35 1 -18 -2 -33 -7 -33 -4 0 -6 -7 -3 -15 4 -8 1 -21
-5 -29 -6 -7 -8 -16 -4 -19 3 -4 1 -7 -5 -7 -16 0 -15 23 0 38 9 9 8 12 -6 12
-14 0 -17 -7 -14 -42 2 -32 7 -42 18 -40 9 2 4 -8 -12 -24 -22 -23 -31 -26
-62 -20 -22 4 -36 13 -36 21 0 8 -5 15 -11 15 -5 0 -7 -4 -4 -10 3 -5 0 -7 -7
-5 -12 5 -12 20 -1 98 17 111 30 124 108 107 19 -4 38 -4 40 1 7 10 7 9 -175
44 -165 31 -164 31 -188 1z m123 -16 c25 -11 -1 -11 -35 0 -20 6 -21 8 -5 8
11 0 29 -3 40 -8z m28 -75 c-7 -33 -13 -72 -13 -87 0 -45 -10 -58 -44 -58 -31
1 -103 28 -77 29 11 1 11 4 1 16 -9 11 -10 15 -1 15 8 0 10 8 6 23 -5 18 -4
19 5 7 9 -13 11 -12 8 5 -3 13 -10 19 -23 17 -18 -2 -19 -2 -2 8 9 6 21 9 26
5 5 -3 11 0 13 7 3 7 7 5 11 -6 4 -10 3 -15 -3 -11 -6 3 -10 -4 -10 -17 0 -22
0 -22 27 5 25 24 26 30 17 65 l-10 39 41 -1 41 -1 -13 -60z m-126 29 c-3 -3
-12 -4 -19 -1 -8 3 -5 6 6 6 11 1 17 -2 13 -5z m55 -29 c3 -13 1 -22 -3 -19
-9 5 -13 44 -5 44 2 0 6 -11 8 -25z"/>
<path d="M974 3355 c-11 -42 -10 -95 1 -95 6 0 21 13 33 30 21 28 22 32 7 60
-19 36 -33 38 -41 5z"/>
<path d="M1890 3370 c0 -5 5 -10 11 -10 5 0 7 5 4 10 -3 6 -8 10 -11 10 -2 0
-4 -4 -4 -10z"/>
<path d="M2600 3360 c-8 -5 -12 -12 -9 -15 4 -3 12 1 19 10 14 17 11 19 -10 5z"/>
<path d="M1850 3350 c0 -5 5 -10 10 -10 6 0 10 5 10 10 0 6 -4 10 -10 10 -5 0
-10 -4 -10 -10z"/>
<path d="M2062 3334 c-7 -12 -19 -15 -40 -12 -17 2 -29 1 -26 -4 8 -13 62 -9
71 6 4 8 17 16 28 19 18 4 18 5 -2 6 -12 0 -26 -6 -31 -15z"/>
<path d="M2556 3341 c-4 -6 -2 -11 4 -11 6 0 8 -6 4 -12 -6 -10 -4 -10 7 0 9
9 10 15 2 23 -8 8 -13 8 -17 0z"/>
<path d="M1764 3316 c11 -9 24 -16 30 -16 12 0 7 5 -24 19 -24 11 -24 11 -6
-3z"/>
<path d="M2149 3325 c-1 -3 -2 -8 -3 -13 0 -4 -8 -15 -16 -23 -15 -16 -38 -15
-77 3 -14 7 -50 8 -100 3 -87 -9 -72 -22 27 -24 71 -1 127 -17 139 -40 16 -29
25 -121 12 -121 -6 0 -11 5 -11 10 0 6 -5 10 -12 10 -6 0 -4 -8 7 -20 32 -35
43 -6 41 108 -1 62 2 103 9 106 5 3 4 5 -2 5 -7 1 -14 -1 -14 -4z m1 -57 c0
-16 -3 -19 -11 -11 -6 6 -8 16 -5 22 11 17 16 13 16 -11z"/>
<path d="M2510 3315 c-7 -9 -10 -18 -7 -22 4 -3 1 -13 -6 -21 -11 -13 -9 -14
10 -1 16 9 19 16 10 21 -9 6 -8 10 3 17 8 6 12 13 9 16 -4 3 -12 -1 -19 -10z"/>
<path d="M2105 3310 c3 -6 1 -10 -6 -10 -7 0 -10 -3 -6 -6 3 -3 13 -2 22 4 16
8 16 9 1 15 -10 4 -15 3 -11 -3z"/>
<path d="M2390 3311 c0 -5 -10 -11 -22 -13 -26 -3 -31 -29 -8 -36 13 -5 13 -3
1 11 -18 22 4 23 25 2 9 -8 23 -15 32 -14 13 0 11 3 -5 11 -13 6 -23 15 -23
20 0 5 4 7 8 4 5 -3 9 1 9 9 0 8 -4 15 -9 15 -4 0 -8 -4 -8 -9z"/>
<path d="M1078 3303 c-25 -6 -22 -18 6 -31 14 -6 31 -28 41 -56 10 -25 22 -46
28 -46 6 0 5 5 -1 13 -6 7 -12 32 -14 56 -3 47 -27 72 -60 64z"/>
<path d="M1842 3297 c10 -8 15 -17 11 -20 -3 -4 -1 -7 5 -7 20 0 13 19 -10 30
-21 10 -21 10 -6 -3z"/>
<path d="M2170 3300 c0 -5 5 -10 10 -10 6 0 10 5 10 10 0 6 -4 10 -10 10 -5 0
-10 -4 -10 -10z"/>
<path d="M492 3275 c-13 -28 -2 -34 18 -10 8 9 31 15 59 16 35 0 41 2 26 9
-11 5 -36 9 -56 9 -29 1 -38 -4 -47 -24z"/>
<path d="M2205 3291 c-3 -5 -1 -12 5 -16 5 -3 10 1 10 9 0 18 -6 21 -15 7z"/>
<path d="M1753 3275 c4 -8 2 -17 -3 -20 -6 -4 -10 0 -11 7 0 7 -7 -9 -15 -36
-9 -26 -13 -51 -10 -54 3 -3 6 2 6 11 0 10 18 26 45 39 37 18 42 24 29 31 -14
8 -14 11 -3 19 10 6 7 7 -10 3 -16 -5 -21 -4 -17 4 4 6 2 11 -4 11 -7 0 -10
-7 -7 -15z"/>
<path d="M2470 3270 c-6 -11 -8 -20 -6 -20 3 0 10 9 16 20 6 11 8 20 6 20 -3
0 -10 -9 -16 -20z"/>
<path d="M1837 3259 c7 -7 15 -10 18 -7 3 3 -2 9 -12 12 -14 6 -15 5 -6 -5z"/>
<path d="M2185 3254 c11 -8 19 -18 17 -22 -2 -3 1 -8 7 -10 6 -2 11 1 11 6 0
11 -34 42 -46 42 -5 0 0 -7 11 -16z"/>
<path d="M2258 3253 c6 -2 18 -2 25 0 6 3 1 5 -13 5 -14 0 -19 -2 -12 -5z"/>
<path d="M1927 3239 c7 -7 15 -10 18 -7 3 3 -2 9 -12 12 -14 6 -15 5 -6 -5z"/>
<path d="M2330 3240 c-13 -9 -13 -10 0 -9 8 0 24 4 35 9 l20 9 -20 0 c-11 0
-27 -4 -35 -9z"/>
<path d="M835 3230 c28 -12 37 -12 30 0 -3 6 -16 10 -28 9 -21 0 -21 -1 -2 -9z"/>
<path d="M362 3200 c0 -14 2 -19 5 -12 2 6 2 18 0 25 -3 6 -5 1 -5 -13z"/>
<path d="M2328 3198 c2 -11 8 -16 11 -11 3 4 10 11 14 14 4 4 -1 9 -11 11 -15
4 -18 1 -14 -14z"/>
<path d="M2200 3200 c0 -5 5 -10 10 -10 6 0 10 5 10 10 0 6 -4 10 -10 10 -5 0
-10 -4 -10 -10z"/>
<path d="M1970 3182 c0 -7 6 -12 13 -13 6 0 3 -4 -8 -9 -17 -7 -15 -9 12 -9
17 -1 35 4 39 11 5 7 3 8 -5 4 -7 -5 -21 0 -32 10 -11 10 -19 12 -19 6z"/>
<path d="M2360 3181 c0 -5 7 -11 14 -14 10 -4 13 -1 9 9 -6 15 -23 19 -23 5z"/>
<path d="M471 3164 c0 -11 3 -14 6 -6 3 7 2 16 -1 19 -3 4 -6 -2 -5 -13z"/>
<path d="M2195 3170 c3 -5 1 -10 -4 -10 -6 0 -11 -5 -11 -11 0 -8 5 -8 15 1
17 14 20 30 4 30 -5 0 -7 -4 -4 -10z"/>
<path d="M3710 3171 c0 -6 4 -13 10 -16 6 -3 7 1 4 9 -7 18 -14 21 -14 7z"/>
<path d="M1799 3152 c-8 -9 -30 -29 -49 -44 -44 -35 -28 -35 52 -3 34 14 70
25 80 25 10 0 18 5 18 10 0 6 -13 10 -29 10 -17 0 -33 5 -36 10 -9 14 -19 12
-36 -8z"/>
<path d="M1910 3159 c0 -5 5 -7 10 -4 6 3 10 8 10 11 0 2 -4 4 -10 4 -5 0 -10
-5 -10 -11z"/>
<path d="M2212 3150 c-10 -17 -10 -20 3 -20 8 0 15 9 15 20 0 11 -1 20 -3 20
-1 0 -8 -9 -15 -20z"/>
<path d="M2327 3159 c7 -7 15 -10 18 -7 3 3 -2 9 -12 12 -14 6 -15 5 -6 -5z"/>
<path d="M2070 3150 c-15 -5 -18 -8 -8 -9 9 -1 19 -7 21 -13 4 -8 6 -7 6 4 1
9 7 19 14 21 19 8 -5 6 -33 -3z"/>
<path d="M2720 3156 c0 -3 28 -10 62 -17 46 -9 57 -14 42 -20 -13 -5 -14 -8
-4 -9 12 0 11 -3 -3 -11 -11 -6 -33 -8 -50 -5 -22 4 -27 3 -18 -3 12 -8 9 -11
-12 -17 -16 -3 -31 -4 -34 0 -3 3 -14 -4 -24 -15 -11 -12 -25 -19 -34 -15 -8
3 -15 1 -15 -4 0 -6 -14 -10 -31 -10 -17 0 -51 -9 -77 -19 -26 -11 -76 -28
-111 -37 -36 -10 -59 -20 -53 -22 18 -6 15 -32 -4 -32 -8 0 -12 -5 -9 -11 4
-5 -1 -19 -10 -29 -16 -18 -16 -19 11 -26 30 -8 170 11 188 25 6 4 22 11 36
14 111 22 235 70 335 128 28 16 69 38 92 49 23 11 44 24 47 28 6 10 -92 8
-124 -3 -23 -7 -23 -7 -6 11 13 13 33 18 70 17 51 -1 51 -1 21 13 -20 9 -62
13 -125 11 -52 -1 -110 2 -127 6 -18 5 -33 6 -33 3z"/>
<path d="M1935 3140 c3 -5 11 -10 16 -10 6 0 7 5 4 10 -3 6 -11 10 -16 10 -6
0 -7 -4 -4 -10z"/>
<path d="M2360 3135 c-7 -9 -10 -18 -7 -21 3 -3 10 4 17 15 13 25 8 27 -10 6z"/>
<path d="M1989 3127 c6 -8 8 -17 4 -21 -4 -4 1 -4 11 0 13 5 14 9 5 14 -8 6
-4 10 12 13 19 3 17 5 -10 6 -27 1 -31 -2 -22 -12z"/>
<path d="M2605 3130 c3 -5 8 -10 11 -10 2 0 4 5 4 10 0 6 -5 10 -11 10 -5 0
-7 -4 -4 -10z"/>
<path d="M2175 3120 c-3 -5 1 -10 10 -10 9 0 13 5 10 10 -3 6 -8 10 -10 10 -2
0 -7 -4 -10 -10z"/>
<path d="M2388 3123 c7 -3 16 -2 19 1 4 3 -2 6 -13 5 -11 0 -14 -3 -6 -6z"/>
<path d="M2580 3120 c0 -5 5 -10 11 -10 5 0 7 5 4 10 -3 6 -8 10 -11 10 -2 0
-4 -4 -4 -10z"/>
<path d="M2240 3100 c0 -5 5 -10 11 -10 5 0 7 5 4 10 -3 6 -8 10 -11 10 -2 0
-4 -4 -4 -10z"/>
<path d="M463 3085 c0 -8 4 -12 8 -9 5 3 26 0 47 -6 22 -5 66 -12 98 -15 32
-2 81 -11 108 -20 53 -16 141 -21 132 -6 -3 5 -27 12 -53 16 -27 3 -102 17
-168 31 -140 28 -172 30 -172 9z"/>
<path d="M1910 3090 c-18 -12 -2 -12 25 0 13 6 15 9 5 9 -8 0 -22 -4 -30 -9z"/>
<path d="M2155 3091 c-6 -11 13 -26 22 -17 4 3 0 6 -8 6 -11 0 -11 2 1 10 9 6
10 10 3 10 -6 0 -14 -4 -18 -9z"/>
<path d="M2318 3093 c7 -3 16 -2 19 1 4 3 -2 6 -13 5 -11 0 -14 -3 -6 -6z"/>
<path d="M2350 3096 c0 -2 7 -9 15 -16 13 -11 14 -10 9 4 -5 14 -24 23 -24 12z"/>
<path d="M2425 3080 c10 -11 20 -20 22 -20 2 0 -2 9 -9 20 -7 11 -17 20 -22
20 -5 0 -1 -9 9 -20z"/>
<path d="M2 3055 c2 -23 18 -37 18 -16 0 17 40 22 74 10 19 -7 33 -16 30 -21
-3 -4 -1 -8 5 -8 5 0 11 6 14 13 4 10 7 10 18 0 7 -7 9 -13 3 -13 -5 0 -15
-14 -23 -31 -7 -17 -28 -39 -45 -49 -17 -10 -37 -24 -43 -30 -10 -8 -13 -8
-13 1 0 6 -6 9 -14 6 -10 -4 -12 0 -8 16 2 12 9 27 14 33 5 8 2 13 -9 16 -16
4 -18 -3 -20 -54 -2 -52 0 -58 17 -58 11 0 20 -5 20 -11 0 -6 -9 -8 -20 -4
-16 5 -20 2 -20 -18 0 -22 5 -25 53 -30 44 -5 55 -2 70 15 9 11 17 28 17 39 0
10 5 21 10 24 6 3 10 -4 10 -15 0 -32 30 -78 59 -89 62 -25 211 -46 211 -30 0
5 9 9 19 9 23 0 36 16 21 25 -5 3 -23 -1 -39 -10 -16 -8 -41 -14 -55 -13 -22
2 -23 4 -12 18 7 8 16 35 19 60 3 25 9 63 13 85 l7 40 -21 -19 c-13 -11 -24
-37 -28 -63 -8 -56 -36 -88 -63 -74 -19 11 -46 133 -40 181 5 29 39 41 39 13
0 -15 -2 -16 -11 -3 -9 13 -10 13 -6 0 2 -8 11 -13 18 -10 8 2 32 4 55 5 72 0
24 25 -89 46 -262 49 -258 49 -255 14z m76 -187 c2 -11 -3 -18 -12 -18 -9 0
-16 6 -16 14 0 8 -6 17 -12 20 -7 3 -2 4 12 3 15 -1 26 -9 28 -19z"/>
<path d="M2394 3072 c3 -6 -2 -15 -11 -21 -10 -6 -13 -11 -7 -11 20 0 37 27
23 36 -7 4 -9 3 -5 -4z"/>
<path d="M2208 3063 c7 -3 16 -2 19 1 4 3 -2 6 -13 5 -11 0 -14 -3 -6 -6z"/>
<path d="M460 3052 c0 -13 7 -15 155 -46 166 -34 229 -41 252 -26 10 6 12 9 3
7 -8 -2 -24 0 -34 6 -19 9 -250 54 -333 64 -26 3 -43 1 -43 -5z"/>
<path d="M2230 3039 c0 -5 5 -7 10 -4 6 3 10 8 10 11 0 2 -4 4 -10 4 -5 0 -10
-5 -10 -11z"/>
<path d="M2263 3034 c-9 -9 -9 -15 3 -25 12 -10 13 -9 8 6 -6 14 -4 16 7 10
40 -23 43 -30 13 -37 l-29 -7 30 2 c20 1 31 8 33 21 2 10 0 16 -6 13 -5 -4
-18 2 -28 12 -16 14 -22 15 -31 5z"/>
<path d="M1754 3018 c3 -13 5 -32 6 -43 2 -14 4 -11 9 10 8 33 4 55 -10 55 -5
0 -7 -10 -5 -22z"/>
<path d="M51 3020 c-7 -4 1 -7 18 -8 17 0 31 1 31 3 0 7 -39 12 -49 5z"/>
<path d="M1927 3010 c3 -11 7 -20 9 -20 2 0 4 9 4 20 0 11 -4 20 -9 20 -5 0
-7 -9 -4 -20z"/>
<path d="M96 2997 c-14 -10 -15 -14 -4 -14 7 0 19 6 26 14 7 7 9 13 4 13 -4 0
-16 -6 -26 -13z"/>
<path d="M1780 2991 c0 -5 5 -13 10 -16 6 -3 10 -2 10 4 0 5 -4 13 -10 16 -5
3 -10 2 -10 -4z"/>
<path d="M2013 2973 c9 -2 23 -2 30 0 6 3 -1 5 -18 5 -16 0 -22 -2 -12 -5z"/>
<path d="M2078 2968 c5 -5 16 -8 23 -6 8 3 3 7 -10 11 -17 4 -21 3 -13 -5z"/>
<path d="M295 2960 c3 -5 8 -10 11 -10 2 0 4 5 4 10 0 6 -5 10 -11 10 -5 0 -7
-4 -4 -10z"/>
<path d="M2120 2966 c0 -2 7 -7 16 -10 8 -3 12 -2 9 4 -6 10 -25 14 -25 6z"/>
<path d="M2205 2960 c-3 -5 -1 -10 4 -10 6 0 11 5 11 10 0 6 -2 10 -4 10 -3 0
-8 -4 -11 -10z"/>
<path d="M2018 2953 c12 -2 30 -2 40 0 9 3 -1 5 -23 4 -22 0 -30 -2 -17 -4z"/>
<path d="M2270 2950 c0 -5 5 -10 10 -10 6 0 10 5 10 10 0 6 -4 10 -10 10 -5 0
-10 -4 -10 -10z"/>
<path d="M2315 2950 c-3 -6 1 -7 9 -4 18 7 21 14 7 14 -6 0 -13 -4 -16 -10z"/>
<path d="M2090 2940 c-8 -5 -10 -10 -5 -10 6 0 17 5 25 10 8 5 11 10 5 10 -5
0 -17 -5 -25 -10z"/>
<path d="M774 2923 c3 -21 43 -30 60 -13 13 13 -8 30 -41 30 -15 0 -20 -5 -19
-17z"/>
<path d="M1975 2930 c-3 -6 1 -7 9 -4 18 7 21 14 7 14 -6 0 -13 -4 -16 -10z"/>
<path d="M2148 2933 c7 -3 16 -2 19 1 4 3 -2 6 -13 5 -11 0 -14 -3 -6 -6z"/>
<path d="M2190 2931 c0 -6 4 -13 10 -16 6 -3 7 1 4 9 -7 18 -14 21 -14 7z"/>
<path d="M2220 2929 c0 -5 5 -7 10 -4 6 3 10 8 10 11 0 2 -4 4 -10 4 -5 0 -10
-5 -10 -11z"/>
<path d="M3805 2891 c21 -22 41 -41 43 -41 10 0 -43 62 -61 71 -14 7 -8 -4 18
-30z"/>
<path d="M1904 2905 c15 -11 13 -13 -13 -17 -17 -2 -36 -1 -43 3 -6 4 -24 1
-39 -7 -17 -8 -54 -14 -91 -13 -42 1 -55 3 -38 8 22 6 23 8 6 14 -10 4 -25 2
-32 -4 -8 -6 -14 -8 -14 -4 0 4 -9 -3 -20 -16 -16 -19 -19 -20 -13 -5 4 13 3
17 -5 12 -7 -4 -12 -12 -12 -17 0 -6 -7 -17 -15 -25 -22 -22 -18 -51 8 -68 20
-14 93 -26 177 -31 63 -3 67 -4 47 -16 -13 -8 -22 -7 -33 2 -12 10 -15 10 -12
0 2 -7 -15 -20 -38 -29 -40 -17 -74 -43 -74 -58 0 -4 -12 -21 -27 -38 -16 -17
-21 -25 -12 -18 9 6 18 9 21 6 3 -3 19 11 35 30 16 19 44 42 63 49 42 17 193
32 170 17 -8 -5 -23 -10 -32 -10 -9 0 -40 -5 -68 -11 -56 -12 -129 -69 -156
-121 -18 -35 -5 -36 28 -3 27 27 86 55 116 55 11 0 32 -10 47 -22 31 -24 64
-26 139 -9 68 15 70 6 3 -13 -68 -20 -103 -20 -155 -2 -23 8 -50 14 -61 13
-19 -1 -19 -2 3 -24 27 -26 105 -45 131 -31 9 6 19 7 22 4 4 -3 12 -1 20 6 10
8 12 8 8 -3 -10 -25 -59 -41 -153 -48 -141 -12 -140 -29 2 -33 64 -2 116 0
116 4 0 4 8 9 18 12 9 3 41 22 70 41 58 38 67 42 56 23 -4 -6 11 1 33 18 23
16 39 33 36 37 -3 5 -12 -1 -20 -12 -8 -12 -19 -21 -24 -21 -5 0 2 12 16 27
14 15 25 31 25 35 0 4 7 5 15 2 8 -4 15 -10 15 -16 0 -5 -5 -6 -12 -2 -8 5 -9
2 -5 -11 4 -9 2 -25 -5 -33 -10 -12 -10 -14 -1 -8 8 4 11 2 9 -6 -3 -7 -7 -26
-10 -41 -4 -15 -11 -25 -16 -22 -6 3 -10 -1 -10 -10 0 -9 4 -14 8 -11 5 3 6
-8 4 -25 -2 -16 0 -29 6 -29 9 0 62 196 62 229 0 11 -3 11 -15 1 -17 -15 -19
-7 -5 21 8 14 7 19 -1 19 -6 0 -8 7 -5 16 3 8 2 12 -4 9 -6 -3 -10 -2 -10 3 0
5 -22 34 -50 63 -45 48 -68 91 -39 73 8 -4 7 0 -1 15 -13 26 -67 61 -93 61
-10 0 -16 4 -13 9 3 5 -8 11 -26 13 -26 4 -29 3 -14 -7z m-227 -101 c-3 -3
-12 -4 -19 -1 -8 3 -5 6 6 6 11 1 17 -2 13 -5z m219 -53 c-8 -12 -57 -20 -75
-12 -10 3 2 8 29 12 25 3 46 7 48 7 2 1 1 -2 -2 -7z m67 2 c-7 -2 -21 -2 -30
0 -10 3 -4 5 12 5 17 0 24 -2 18 -5z m51 -142 c-5 -6 -34 20 -34 30 0 5 8 1
18 -8 10 -10 17 -20 16 -22z"/>
<path d="M2000 2905 c-7 -8 -9 -15 -6 -15 4 0 14 7 22 15 9 8 11 15 6 15 -5 0
-15 -7 -22 -15z"/>
<path d="M2075 2909 c-4 -6 -5 -12 -2 -15 2 -3 7 2 10 11 7 17 1 20 -8 4z"/>
<path d="M560 2890 c-9 -6 -10 -10 -3 -10 6 0 15 5 18 10 8 12 4 12 -15 0z"/>
<path d="M2590 2884 c-31 -8 -37 -13 -20 -13 14 0 39 6 55 14 37 17 24 16 -35
-1z"/>
<path d="M2665 2890 c-3 -5 -1 -10 4 -10 6 0 11 5 11 10 0 6 -2 10 -4 10 -3 0
-8 -4 -11 -10z"/>
<path d="M2925 2895 c-5 -1 -62 -8 -125 -15 -63 -6 -134 -19 -158 -27 -32 -12
-46 -13 -54 -5 -7 7 -16 12 -22 12 -5 0 -2 -6 8 -13 16 -11 15 -14 -13 -35
-17 -12 -31 -30 -31 -40 -1 -15 -3 -15 -17 3 -11 14 -14 15 -10 4 3 -9 1 -21
-4 -26 -17 -17 -20 -61 -6 -70 19 -11 28 -41 14 -46 -7 -2 14 -3 47 -1 32 2
64 0 71 -6 7 -6 19 -9 26 -8 8 2 13 -3 11 -11 -3 -12 0 -12 12 -2 9 8 27 10
51 5 27 -5 40 -3 46 7 7 11 11 10 24 -6 9 -12 14 -14 13 -6 -3 15 59 34 76 24
5 -4 6 -1 2 5 -4 7 -15 12 -24 12 -15 0 -15 2 -2 11 12 9 11 9 -5 3 -62 -22
-235 -9 -235 18 0 5 -14 1 -31 -7 -17 -9 -38 -14 -47 -12 -15 4 -15 5 1 6 10
0 16 5 12 10 -9 16 75 27 140 20 33 -4 64 -4 70 0 5 5 26 11 45 15 19 3 54 20
77 37 44 31 141 69 176 69 28 0 18 7 -23 17 -46 10 -190 6 -258 -8 -74 -15
-123 -18 -116 -7 3 5 15 6 26 2 12 -3 18 -2 15 3 -3 5 15 15 41 21 54 14 198
32 221 27 9 -2 46 -6 84 -10 97 -11 84 9 -16 23 -84 12 -94 13 -112 7z m-410
-154 c-3 -5 3 -12 12 -14 11 -3 8 -5 -9 -6 -20 -1 -26 3 -22 14 4 8 10 15 16
15 5 0 7 -4 3 -9z"/>
<path d="M834 2868 c-4 -13 -7 -29 -6 -35 2 -7 -3 -23 -10 -35 -6 -13 -11 -34
-10 -48 3 -39 -13 -55 -57 -55 -22 0 -37 -3 -34 -8 2 -4 24 -6 48 -5 l43 3 13
60 c8 33 14 71 15 85 1 14 5 33 9 43 4 9 5 17 2 17 -3 0 -9 -10 -13 -22z"/>
<path d="M2142 2865 c0 -16 2 -22 5 -12 2 9 2 23 0 30 -3 6 -5 -1 -5 -18z"/>
<path d="M2250 2878 c0 -7 5 -20 10 -28 8 -12 10 -11 10 7 0 12 -4 25 -10 28
-5 3 -10 0 -10 -7z"/>
<path d="M2288 2872 c-4 -16 -1 -29 13 -43 18 -18 28 -12 10 7 -5 5 -11 20
-13 34 l-3 25 -7 -23z"/>
<path d="M4528 2863 c6 -2 18 -2 25 0 6 3 1 5 -13 5 -14 0 -19 -2 -12 -5z"/>
<path d="M2050 2853 c8 -3 18 -11 22 -17 5 -7 8 -4 8 7 0 11 -7 17 -22 16 -16
0 -18 -2 -8 -6z"/>
<path d="M2105 2850 c-3 -5 -1 -10 4 -10 6 0 11 5 11 10 0 6 -2 10 -4 10 -3 0
-8 -4 -11 -10z"/>
<path d="M2510 2850 c-24 -15 -7 -18 20 -3 14 7 18 13 10 13 -8 0 -22 -4 -30
-10z"/>
<path d="M1108 2834 c-23 -12 -43 -13 -110 -4 -120 15 -122 -8 -3 -29 117 -21
154 -12 143 33 -3 13 -6 13 -30 0z"/>
<path d="M788 2833 c7 -3 16 -2 19 1 4 3 -2 6 -13 5 -11 0 -14 -3 -6 -6z"/>
<path d="M2535 2829 c-4 -6 -5 -12 -2 -15 2 -3 7 2 10 11 7 17 1 20 -8 4z"/>
<path d="M490 2819 c0 -5 5 -7 10 -4 6 3 10 8 10 11 0 2 -4 4 -10 4 -5 0 -10
-5 -10 -11z"/>
<path d="M2173 2805 c7 -13 14 -20 15 -14 5 14 -6 39 -17 39 -5 0 -4 -11 2
-25z"/>
<path d="M2485 2810 c-3 -5 -1 -10 4 -10 6 0 11 5 11 10 0 6 -2 10 -4 10 -3 0
-8 -4 -11 -10z"/>
<path d="M2202 2785 c0 -16 2 -22 5 -12 2 9 2 23 0 30 -3 6 -5 -1 -5 -18z"/>
<path d="M600 2778 c-12 -22 -12 -22 6 -6 10 10 15 20 12 24 -4 3 -12 -5 -18
-18z"/>
<path d="M2300 2790 c15 -10 58 -14 48 -5 -3 3 -18 8 -34 11 -22 3 -25 2 -14
-6z"/>
<path d="M0 2746 c0 -39 3 -44 27 -49 15 -3 51 1 80 9 30 8 56 14 59 14 2 0
-9 -12 -26 -27 -23 -21 -36 -46 -50 -102 -23 -86 -35 -104 -67 -98 -17 3 -23
0 -23 -14 0 -14 7 -19 25 -19 21 0 23 -3 16 -22 -19 -47 -41 -128 -41 -150 0
-19 2 -20 13 -8 12 14 32 70 100 290 20 62 29 78 56 94 19 11 36 15 41 10 12
-12 15 -142 5 -174 -4 -13 -47 -72 -96 -131 -49 -60 -89 -112 -89 -116 0 -4
29 22 65 57 36 35 65 60 65 55 0 -23 -22 -85 -29 -85 -5 0 -14 -14 -20 -31 -9
-27 -9 -30 4 -19 21 18 19 9 -8 -28 -13 -17 -28 -28 -32 -24 -5 4 -5 1 -1 -6
5 -7 10 -11 13 -8 3 3 12 -1 20 -9 26 -27 42 -16 74 53 17 37 51 108 74 157
52 109 71 164 80 232 6 45 4 56 -16 83 -31 41 -110 78 -205 95 -117 21 -114
22 -114 -29z"/>
<path d="M2220 2775 c1 -5 6 -17 13 -26 10 -14 14 -14 25 -3 11 13 8 16 -14
13 -4 0 -11 5 -15 13 -5 7 -9 9 -9 3z"/>
<path d="M2193 2747 c9 -8 17 -17 17 -20 0 -3 -8 -8 -17 -10 -15 -4 -15 -5 -2
-6 9 0 22 5 28 12 8 11 5 16 -17 26 -23 10 -25 10 -9 -2z"/>
<path d="M578 2743 c7 -3 16 -2 19 1 4 3 -2 6 -13 5 -11 0 -14 -3 -6 -6z"/>
<path d="M924 2718 c-36 -28 -44 -39 -37 -52 3 -5 1 -6 -4 -3 -6 4 -21 -3 -34
-15 -15 -13 -18 -19 -7 -15 9 3 22 -1 28 -8 7 -8 16 -13 20 -10 5 3 10 0 12
-5 2 -8 11 -8 28 -1 23 9 24 10 3 10 -37 1 -34 33 6 84 18 21 47 22 55 1 10
-26 7 -69 -6 -82 -9 -9 -9 -12 0 -12 7 0 12 5 12 11 0 5 5 7 10 4 18 -11 11
-21 -17 -23 -38 -3 -61 -33 -68 -90 -4 -26 -19 -107 -35 -179 -15 -73 -23
-133 -19 -133 5 0 11 10 13 23 3 12 17 85 32 162 36 188 34 185 86 186 24 0
38 3 31 5 -8 4 -10 16 -6 34 7 39 -4 96 -23 115 -21 21 -46 19 -80 -7z"/>
<path d="M570 2722 c0 -12 16 -18 79 -27 27 -5 41 -4 38 3 -4 5 -23 12 -44 15
-21 3 -46 8 -55 12 -10 4 -18 3 -18 -3z"/>
<path d="M2141 2713 c8 -13 20 -23 28 -23 8 0 12 1 10 3 -2 1 -15 11 -28 22
l-24 20 14 -22z"/>
<path d="M2386 2710 c9 -36 19 -43 20 -15 1 14 -2 23 -6 20 -5 -3 -11 1 -14 7
-3 7 -3 2 0 -12z"/>
<path d="M2675 2680 c-3 -6 1 -7 9 -4 18 7 21 14 7 14 -6 0 -13 -4 -16 -10z"/>
<path d="M2425 2669 c-11 -16 -1 -19 13 -3 7 8 8 14 3 14 -5 0 -13 -5 -16 -11z"/>
<path d="M2700 2670 c-9 -6 -10 -10 -3 -10 6 0 15 5 18 10 8 12 4 12 -15 0z"/>
<path d="M3815 2670 c17 -4 39 -8 50 -8 16 0 15 2 -5 8 -14 4 -36 8 -50 8 -22
0 -22 -1 5 -8z"/>
<path d="M4583 2635 c-7 -28 -20 -90 -29 -140 -8 -49 -26 -135 -39 -190 -27
-121 -39 -196 -26 -175 17 28 114 510 109 538 -2 9 -9 -6 -15 -33z"/>
<path d="M3570 2645 c0 -3 13 -31 30 -63 39 -75 68 -95 145 -98 l60 -3 -51 8
c-28 5 -60 14 -72 20 -28 15 -69 69 -83 109 -6 18 -15 32 -20 32 -5 0 -9 -2
-9 -5z"/>
<path d="M2435 2630 c3 -5 8 -10 11 -10 2 0 4 5 4 10 0 6 -5 10 -11 10 -5 0
-7 -4 -4 -10z"/>
<path d="M2464 2619 c-9 -15 5 -26 41 -34 23 -5 26 -4 15 4 -8 6 -23 11 -34
11 -12 0 -16 5 -12 15 6 17 0 20 -10 4z"/>
<path d="M2588 2623 c7 -3 16 -2 19 1 4 3 -2 6 -13 5 -11 0 -14 -3 -6 -6z"/>
<path d="M2857 2623 c-4 -3 -7 -11 -7 -17 0 -6 5 -5 12 2 6 6 9 14 7 17 -3 3
-9 2 -12 -2z"/>
<path d="M2613 2603 c9 -2 23 -2 30 0 6 3 -1 5 -18 5 -16 0 -22 -2 -12 -5z"/>
<path d="M2691 2600 c-9 -5 -3 -9 16 -13 34 -6 37 -5 14 10 -10 6 -23 8 -30 3z"/>
<path d="M2545 2580 c3 -5 8 -10 11 -10 2 0 4 5 4 10 0 6 -5 10 -11 10 -5 0
-7 -4 -4 -10z"/>
<path d="M2585 2581 c-14 -6 -5 -8 27 -7 25 1 41 4 35 8 -15 9 -36 9 -62 -1z"/>
<path d="M1965 2440 c-16 -7 -17 -9 -3 -9 9 -1 20 4 23 9 7 11 7 11 -20 0z"/>
<path d="M2000 2425 c-14 -8 -20 -14 -14 -15 5 0 19 7 30 15 24 18 16 19 -16
0z"/>
<path d="M1918 2397 c22 -7 36 -7 43 0 7 7 -4 10 -33 10 l-43 0 33 -10z"/>
<path d="M2018 2403 c7 -3 16 -2 19 1 4 3 -2 6 -13 5 -11 0 -14 -3 -6 -6z"/>
<path d="M1840 2396 c0 -2 9 -6 20 -9 11 -3 20 -1 20 4 0 5 -9 9 -20 9 -11 0
-20 -2 -20 -4z"/>
<path d="M625 2381 c-18 -8 -69 -63 -185 -202 -98 -117 -108 -121 -219 -91
-171 47 -241 59 -220 37 14 -13 207 -65 281 -75 45 -6 141 -20 213 -31 123
-18 217 -28 312 -32 23 -1 45 -6 49 -10 11 -10 164 -9 164 2 0 11 -61 18 -210
25 -164 7 -179 22 -30 30 170 9 157 6 152 36 -3 14 -7 19 -9 13 -3 -7 -14 -13
-26 -13 -12 0 -35 -7 -51 -15 -23 -12 -52 -14 -155 -8 -108 6 -121 8 -91 17
19 5 78 9 130 8 l95 -1 -50 20 c-27 11 -62 21 -77 22 -24 2 -25 3 -11 19 9 10
19 15 24 13 4 -3 11 0 15 6 4 8 3 9 -4 5 -7 -4 -12 -3 -12 3 0 5 6 12 13 14 8
4 7 6 -3 6 -8 1 3 12 26 26 23 13 60 49 84 79 39 52 41 57 25 72 -24 24 -187
42 -230 25z m45 -178 c-1 -10 -96 -86 -128 -102 -23 -12 -23 -12 -8 16 21 38
36 56 66 76 25 17 70 23 70 10z"/>
<path d="M2105 2360 c-34 -55 -91 -178 -87 -189 2 -8 0 -11 -5 -8 -12 8 -13
-32 0 -68 10 -31 62 -85 81 -85 6 0 4 5 -4 10 -8 5 -11 10 -7 10 14 0 97 -51
97 -60 0 -4 9 -10 20 -13 13 -3 18 -11 14 -20 -3 -10 1 -17 13 -20 16 -4 16
-5 1 -6 -25 -1 -23 -21 2 -21 32 0 24 -30 -9 -36 -29 -6 -30 -7 -14 -30 11
-18 21 -23 36 -18 16 5 19 3 14 -10 -4 -9 -2 -16 3 -16 6 0 10 5 10 11 0 5 5
7 10 4 6 -4 17 -1 25 5 8 6 20 8 26 4 8 -4 9 -3 5 4 -4 7 -2 12 3 12 6 0 14 0
19 0 4 0 7 -5 7 -12 0 -15 21 -22 30 -9 4 7 0 8 -11 4 -11 -4 -15 -3 -10 5 10
17 90 26 115 13 16 -9 19 -9 16 1 -6 15 44 48 72 47 16 0 16 -1 -2 -9 -22 -10
99 -3 125 7 8 4 18 7 22 7 23 3 14 15 -11 14 -17 -1 -31 -4 -31 -9 0 -9 -41 1
-58 14 -7 6 -40 11 -73 11 -32 1 -59 5 -59 9 0 5 -5 5 -12 1 -6 -4 -25 -8 -42
-9 -30 -3 -31 -2 -6 8 14 6 39 17 57 25 18 7 37 10 44 6 16 -9 69 -8 80 3 4 4
-8 9 -27 10 -19 1 -41 9 -50 17 -8 9 -22 16 -29 16 -8 0 -12 6 -9 13 6 18 -38
17 -49 0 -4 -7 -12 -13 -17 -13 -6 0 -2 9 7 19 9 11 20 18 25 15 4 -3 8 0 8 7
0 7 3 10 6 6 3 -3 11 -1 18 5 6 5 42 26 81 46 62 33 71 41 81 77 8 27 8 46 2
59 -7 13 -6 21 3 27 9 5 16 4 18 -3 2 -6 12 -19 23 -30 20 -20 20 -20 14 0 -5
15 -1 22 14 27 26 8 40 -3 20 -15 -13 -9 -13 -10 0 -10 13 0 13 -1 0 -11 -13
-9 -13 -10 0 -6 8 2 14 10 12 16 -2 13 8 14 27 2 11 -7 10 -11 -4 -19 -17 -9
-16 -10 4 -17 12 -4 25 -4 28 -1 4 3 -1 6 -11 6 -9 0 -14 5 -11 10 4 6 12 8
18 4 7 -3 -4 8 -23 25 -20 18 -43 29 -53 27 -9 -2 -22 3 -28 12 -8 14 -9 13
-4 -5 4 -14 2 -23 -4 -23 -10 0 -16 21 -12 43 0 4 -3 7 -9 7 -5 0 -10 -5 -10
-11 0 -5 -4 -7 -10 -4 -5 3 -10 1 -10 -6 0 -19 -17 2 -22 26 -4 19 -4 19 -10
-2 -3 -11 2 -39 12 -61 17 -39 17 -41 -1 -71 -10 -17 -27 -32 -36 -32 -10 -1
-22 -2 -28 -4 -5 -1 -20 -3 -32 -3 -13 -1 -23 -8 -23 -15 0 -6 -19 -24 -42
-40 -24 -15 -63 -43 -88 -63 -41 -33 -49 -36 -96 -32 -39 3 -63 13 -100 40
-27 19 -66 41 -87 48 -30 9 -42 21 -53 47 -9 21 -11 39 -6 46 15 21 62 138 71
178 9 39 8 48 -4 29z m385 -399 c0 -5 -9 -7 -20 -4 -11 3 -20 7 -20 9 0 2 9 4
20 4 11 0 20 -4 20 -9z m-110 -101 c0 -5 -5 -10 -11 -10 -5 0 -7 5 -4 10 3 6
8 10 11 10 2 0 4 -4 4 -10z"/>
<path d="M3555 2339 c-3 -5 1 -6 9 -3 10 4 16 1 16 -9 0 -9 17 -19 44 -26 55
-13 95 -13 46 1 -19 5 -41 16 -47 25 -14 18 -60 26 -68 12z"/>
<path d="M1126 2331 c10 -11 72 -27 63 -17 -4 4 -21 11 -39 16 -20 6 -30 6
-24 1z"/>
<path d="M2586 2311 c10 -10 21 -17 23 -15 6 6 -20 34 -32 34 -6 0 -2 -8 9
-19z"/>
<path d="M2618 2323 c6 -2 18 -2 25 0 6 3 1 5 -13 5 -14 0 -19 -2 -12 -5z"/>
<path d="M2645 2300 c-3 -5 -2 -10 4 -10 5 0 13 5 16 10 3 6 2 10 -4 10 -5 0
-13 -4 -16 -10z"/>
<path d="M1160 2267 c0 -18 96 -50 156 -51 36 -1 56 4 68 17 17 16 16 17 -13
17 -16 0 -52 4 -78 9 -102 20 -133 22 -133 8z"/>
<path d="M1993 2214 c-18 -24 -28 -44 -23 -44 6 0 10 5 10 12 0 6 3 8 7 5 10
-11 32 13 26 29 -3 8 -1 14 5 14 5 0 12 7 16 15 10 28 -9 14 -41 -31z"/>
<path d="M371 2218 c12 -44 12 -44 -13 -68 -14 -13 -35 -20 -60 -20 -21 0 -38
-4 -38 -10 0 -13 66 -13 89 -1 10 6 35 31 56 57 37 44 38 47 20 60 -10 8 -29
14 -41 14 -21 0 -22 -3 -13 -32z"/>
<path d="M2831 2173 c-12 -13 -11 -18 6 -35 20 -20 20 -20 25 0 4 15 2 19 -8
15 -8 -3 -14 -1 -14 5 0 6 5 12 12 14 7 3 8 7 3 10 -6 3 -16 -1 -24 -9z"/>
<path d="M1190 2160 c-15 -28 -25 -116 -14 -123 20 -12 41 21 51 81 9 57 8 62
-8 62 -10 0 -23 -9 -29 -20z"/>
<path d="M1324 2158 c-3 -5 -10 -6 -15 -2 -5 3 -9 2 -8 -3 1 -4 0 -15 -3 -23
-9 -24 -24 -137 -20 -149 13 -38 37 17 48 109 4 30 14 60 22 66 13 9 12 11 -2
11 -9 0 -19 -4 -22 -9z"/>
<path d="M2786 2156 c10 -8 21 -12 24 -10 5 6 -21 24 -34 24 -6 0 -1 -6 10
-14z"/>
<path d="M796 2149 c3 -5 19 -9 36 -9 39 0 34 6 -10 13 -18 3 -30 1 -26 -4z"/>
<path d="M1930 2150 c-8 -5 -12 -12 -9 -15 4 -3 12 1 19 10 14 17 11 19 -10 5z"/>
<path d="M1961 2140 c-13 -11 -19 -20 -14 -20 6 0 18 9 28 20 23 25 17 25 -14
0z"/>
<path d="M1474 2129 c-3 -6 -1 -16 5 -22 8 -8 11 -5 11 11 0 24 -5 28 -16 11z"/>
<path d="M1885 2130 c3 -5 10 -10 16 -10 5 0 9 5 9 10 0 6 -7 10 -16 10 -8 0
-12 -4 -9 -10z"/>
<path d="M970 2085 c-43 -45 -35 -62 34 -74 107 -18 158 10 63 34 -67 17 -72
29 -9 20 59 -8 70 5 22 30 -43 22 -83 19 -110 -10z"/>
<path d="M1800 2090 c0 -5 7 -10 16 -10 9 0 12 -5 8 -12 -4 -7 -3 -8 4 -4 6 4
9 13 5 21 -6 17 -33 21 -33 5z"/>
<path d="M4263 2088 c-6 -7 -13 -31 -16 -53 -3 -22 -15 -83 -26 -135 -27 -122
-27 -156 -1 -170 11 -6 20 -7 20 -3 0 4 4 3 8 -4 8 -13 227 -61 237 -52 3 4
-8 21 -25 39 -17 18 -29 39 -26 46 5 14 -65 60 -100 65 -30 5 -64 -28 -64 -62
0 -22 -4 -27 -20 -26 -24 2 -25 10 -5 27 8 7 12 17 9 22 -8 13 16 168 26 168
5 0 6 8 3 19 -3 13 5 26 28 42 l33 23 110 -23 c61 -12 115 -26 121 -32 13 -13
25 -11 25 5 0 8 -19 21 -42 30 l-43 15 43 -6 c34 -5 42 -3 42 11 0 9 -3 16 -6
16 -20 0 -159 24 -204 36 -67 17 -114 18 -127 2z m112 -29 c19 -7 18 -8 -3 -8
-13 -1 -35 -10 -49 -21 -28 -22 -43 -19 -43 9 0 39 31 45 95 20z m72 -15 c-3
-3 -12 -4 -19 -1 -8 3 -5 6 6 6 11 1 17 -2 13 -5z m-108 -276 c5 -13 7 -26 5
-30 -9 -14 -32 4 -37 28 -6 31 20 33 32 2z"/>
<path d="M38 2036 c-30 -22 -36 -58 -36 -201 0 -77 2 -131 5 -120 2 11 15 81
29 155 14 74 27 145 30 158 5 25 -3 27 -28 8z m-21 -108 c-3 -8 -6 -5 -6 6 -1
11 2 17 5 13 3 -3 4 -12 1 -19z"/>
<path d="M2204 2034 c1 -9 9 -20 17 -25 20 -13 67 -11 75 3 5 8 2 9 -10 5 -10
-4 -19 -1 -22 8 -4 8 -10 12 -15 9 -5 -2 -17 0 -28 5 -15 9 -19 8 -17 -5z"/>
<path d="M1857 2033 c10 -3 10 -10 2 -24 -7 -14 -7 -24 0 -33 6 -7 7 -17 3
-21 -4 -5 -1 -5 6 -1 10 6 10 11 1 22 -9 11 -9 17 1 29 13 16 6 35 -13 34 -9
0 -9 -2 0 -6z"/>
<path d="M3180 2019 c0 -11 5 -17 10 -14 6 3 10 13 10 21 0 8 -4 14 -10 14 -5
0 -10 -9 -10 -21z"/>
<path d="M1906 2008 c6 -25 -8 -40 -19 -20 -2 4 -2 1 -1 -6 2 -7 -2 -21 -8
-32 -9 -14 -15 -16 -25 -8 -9 7 -9 2 2 -18 8 -16 15 -33 15 -39 0 -5 11 -18
24 -27 l24 -18 -5 42 c-2 23 -6 45 -9 49 -2 4 9 15 25 25 18 11 29 25 29 40 0
20 -2 21 -15 8 -19 -18 -24 -18 -16 3 4 10 2 14 -4 10 -6 -4 -14 -1 -17 5 -3
7 -3 1 0 -14z"/>
<path d="M91 1997 c-6 -16 -11 -38 -11 -50 -1 -12 -11 -73 -24 -134 -13 -62
-20 -113 -15 -113 10 0 15 18 34 125 8 50 20 109 26 132 14 51 6 80 -10 40z"/>
<path d="M2782 2015 c3 -4 12 -7 20 -9 22 -3 39 -17 33 -27 -4 -5 -1 -9 5 -9
6 0 8 -6 4 -12 -4 -7 -4 -10 1 -6 4 4 16 3 26 -3 31 -16 22 13 -11 39 -26 20
-95 44 -78 27z"/>
<path d="M150 2001 c0 -5 3 -11 8 -14 4 -2 1 -2 -5 -1 -7 2 -17 -4 -22 -14 -8
-16 -36 -156 -47 -242 l-5 -35 14 35 c8 19 20 71 27 114 15 102 18 109 44 103
17 -4 197 -41 256 -52 8 -2 18 -4 22 -4 4 -1 3 -13 -2 -27 -6 -14 -9 -44 -9
-67 l2 -42 11 55 c6 30 15 61 19 68 16 24 25 11 16 -25 -12 -52 -11 -106 1
-98 6 3 10 23 10 44 0 53 24 74 72 61 30 -9 44 -6 92 16 31 14 56 29 56 33 0
5 -30 11 -67 14 -73 6 -366 59 -423 77 -43 12 -70 13 -70 1z"/>
<path d="M2875 1990 c-3 -5 1 -10 10 -10 9 0 13 5 10 10 -3 6 -8 10 -10 10 -2
0 -7 -4 -10 -10z"/>
<path d="M1760 1971 c0 -14 21 -75 35 -101 12 -23 44 -136 47 -167 1 -7 5 -10
9 -8 4 3 9 -2 13 -10 3 -8 14 -15 24 -15 12 0 18 -8 20 -26 1 -14 5 -31 9 -39
14 -24 102 -84 108 -74 9 14 27 -1 21 -18 -4 -8 -2 -11 5 -7 6 4 15 0 20 -7 7
-11 9 -11 9 -1 0 19 -27 69 -75 137 -23 33 -54 83 -70 110 -16 28 -48 72 -71
99 -24 28 -54 69 -66 93 -21 40 -38 55 -38 34z m136 -202 c10 -16 17 -32 16
-35 -2 -4 2 -11 10 -16 9 -7 8 -8 -5 -4 -26 8 -41 -3 -26 -20 8 -10 8 -14 0
-14 -6 0 -11 1 -11 3 0 1 -9 32 -19 69 -18 63 -18 66 -2 56 10 -6 26 -24 37
-39z m21 -75 c5 -13 7 -13 14 -2 7 10 9 10 9 -2 0 -9 -5 -21 -11 -27 -7 -7 -3
-17 17 -32 15 -11 23 -21 18 -21 -18 1 -45 28 -49 50 -2 12 -9 28 -16 36 -9
11 -9 14 0 14 6 0 14 -7 18 -16z"/>
<path d="M1880 1765 c0 -5 5 -17 10 -25 5 -8 10 -10 10 -5 0 6 -5 17 -10 25
-5 8 -10 11 -10 5z"/>
<path d="M2917 1969 c7 -7 15 -10 18 -7 3 3 -2 9 -12 12 -14 6 -15 5 -6 -5z"/>
<path d="M1942 1940 c-11 -17 -10 -23 3 -36 8 -9 15 -21 15 -27 0 -36 58 -186
99 -256 45 -75 48 -79 49 -49 0 18 -5 36 -11 40 -9 6 -8 11 3 19 13 9 13 10
-2 6 -19 -6 -33 19 -15 27 7 2 4 5 -5 5 -19 1 -25 21 -7 21 8 0 8 5 -1 15 -8
9 -8 15 -2 15 6 0 18 7 27 16 15 16 28 16 171 1 168 -18 165 -19 344 45 95 34
190 51 206 37 7 -6 43 -14 79 -17 l66 -5 -3 31 c-1 17 -5 29 -8 27 -3 -2 -14
7 -24 21 -11 13 -25 24 -33 24 -10 0 -13 6 -9 15 4 13 2 14 -14 5 -16 -9 -20
-8 -20 5 0 13 -2 14 -14 3 -8 -7 -10 -15 -5 -18 4 -3 4 -12 0 -19 -5 -8 -14
-10 -21 -6 -8 5 -11 4 -7 -2 11 -17 -52 -42 -198 -77 -179 -44 -215 -50 -215
-36 0 6 -10 8 -26 4 -19 -5 -25 -4 -20 5 4 6 2 11 -3 11 -6 0 -11 -4 -11 -10
0 -5 -20 -10 -45 -10 -25 0 -45 4 -45 9 0 6 -12 6 -30 1 -35 -10 -53 -8 -71 7
-8 6 -17 11 -20 10 -15 -5 -79 39 -74 51 2 7 1 11 -3 8 -13 -8 -52 23 -52 40
0 8 -3 13 -7 13 -20 -3 -23 3 -12 22 6 13 7 19 1 15 -6 -3 -12 -2 -14 4 -2 6
-9 1 -16 -10z m18 -10 c0 -5 -5 -10 -11 -10 -5 0 -7 5 -4 10 3 6 8 10 11 10 2
0 4 -4 4 -10z m90 -240 c0 -5 -2 -10 -4 -10 -3 0 -8 5 -11 10 -3 6 -1 10 4 10
6 0 11 -4 11 -10z"/>
<path d="M2109 1958 c-5 -18 -6 -38 -1 -34 7 8 12 36 6 36 -2 0 -4 -1 -5 -2z"/>
<path d="M4335 1949 l-40 -5 28 -12 c33 -14 54 -15 61 -4 11 17 -11 27 -49 21z"/>
<path d="M2716 1928 c3 -5 10 -6 15 -3 13 9 11 12 -6 12 -8 0 -12 -4 -9 -9z"/>
<path d="M2130 1925 c0 -7 30 -13 34 -7 3 4 -4 9 -15 9 -10 1 -19 0 -19 -2z"/>
<path d="M2508 1923 c7 -3 16 -2 19 1 4 3 -2 6 -13 5 -11 0 -14 -3 -6 -6z"/>
<path d="M2747 1895 c3 -8 9 -12 14 -9 12 7 11 11 -5 17 -10 4 -13 1 -9 -8z"/>
<path d="M4310 1901 c0 -13 23 -19 44 -11 18 6 18 7 -5 13 -32 9 -39 9 -39 -2z"/>
<path d="M2045 1890 c-3 -5 -1 -10 4 -10 6 0 11 5 11 10 0 6 -2 10 -4 10 -3 0
-8 -4 -11 -10z"/>
<path d="M2196 1877 c3 -10 9 -15 12 -12 3 3 0 11 -7 18 -10 9 -11 8 -5 -6z"/>
<path d="M135 1815 c-4 -31 -5 -58 -2 -61 2 -3 8 20 12 51 3 31 4 59 2 62 -3
2 -9 -21 -12 -52z"/>
<path d="M1047 1857 c-9 -23 -20 -107 -14 -107 7 0 30 110 24 116 -2 3 -7 -2
-10 -9z"/>
<path d="M2135 1860 c3 -5 8 -10 11 -10 2 0 4 5 4 10 0 6 -5 10 -11 10 -5 0
-7 -4 -4 -10z"/>
<path d="M3100 1858 c0 -7 -3 -24 -6 -38 -6 -22 -5 -23 9 -10 24 24 31 60 13
60 -9 0 -16 -6 -16 -12z"/>
<path d="M966 1843 c-10 -33 -46 -203 -46 -215 0 -9 4 -7 10 3 11 19 52 220
46 226 -2 2 -7 -4 -10 -14z"/>
<path d="M4386 1851 c-3 -5 27 -11 67 -14 39 -3 89 -9 110 -15 28 -7 37 -7 37
2 0 23 -201 49 -214 27z"/>
<path d="M1325 1841 c-56 -4 -103 -14 -124 -25 -23 -12 -36 -14 -40 -7 -8 13
-131 -99 -131 -119 0 -9 7 -4 17 10 28 40 40 50 98 76 35 16 80 28 118 30 l62
4 -50 -14 c-27 -7 -83 -31 -124 -52 -61 -32 -78 -47 -99 -84 -20 -38 -21 -41
-3 -20 11 14 21 28 21 32 0 15 80 48 112 47 l33 0 -37 -16 c-21 -8 -36 -18
-33 -23 2 -4 -7 -18 -20 -30 -14 -13 -25 -29 -25 -37 0 -7 -4 -13 -9 -13 -17
0 -41 -81 -41 -138 0 -31 7 -84 15 -117 8 -33 17 -94 21 -136 7 -79 -4 -118
-42 -150 -13 -10 -11 -1 8 36 21 43 23 57 16 95 -23 118 -41 179 -55 184 -9 4
-36 -7 -61 -24 -25 -16 -54 -30 -64 -30 -24 0 -65 -26 -108 -69 l-35 -35 37
22 c46 26 228 83 241 75 5 -3 -30 -18 -78 -34 -92 -30 -197 -83 -255 -129 -20
-16 -51 -59 -73 -102 -27 -53 -57 -93 -108 -142 -39 -37 -73 -65 -76 -62 -8 8
41 80 89 132 53 57 45 77 -9 22 -36 -37 -124 -186 -101 -172 19 12 6 -13 -20
-37 -15 -14 -49 -68 -76 -120 -67 -129 -115 -199 -134 -199 -22 0 -78 -35
-136 -85 l-46 -40 0 -132 c0 -73 1 -133 3 -134 1 0 65 -4 142 -9 77 -4 148
-11 158 -15 16 -7 14 -10 -15 -29 l-33 -21 623 -3 c342 -1 902 -1 1244 0 l621
3 -40 40 c-22 22 -66 63 -99 90 -181 154 -240 214 -380 390 -76 95 -304 441
-304 461 0 4 -6 15 -14 23 -8 9 -21 27 -28 41 -8 14 -35 58 -62 98 -26 40 -52
85 -56 100 -5 15 -18 52 -30 82 -63 157 -95 320 -88 445 l4 63 -66 -1 c-36 -1
-87 1 -115 4 -27 4 -90 3 -140 0z m92 -37 c-3 -3 -12 -4 -19 -1 -8 3 -5 6 6 6
11 1 17 -2 13 -5z m149 -16 c-13 -9 -70 -8 -111 1 -20 5 -3 7 46 7 42 -1 72
-4 65 -8z m-586 -582 c0 -3 -4 -8 -10 -11 -5 -3 -10 -1 -10 4 0 6 5 11 10 11
6 0 10 -2 10 -4z m-220 -61 c-7 -9 -15 -13 -17 -11 -6 5 -48 -38 -71 -72 -8
-12 -12 -25 -9 -28 3 -3 13 8 22 26 9 18 31 38 50 46 44 18 54 18 29 -2 -18
-14 -18 -15 6 -9 25 6 25 6 -2 -10 -15 -8 -45 -41 -67 -73 -51 -73 -133 -163
-124 -137 4 14 -6 8 -36 -20 -48 -46 -54 -36 -10 20 17 22 -1 6 -41 -35 -86
-91 -139 -168 -144 -212 l-4 -33 17 25 c27 41 72 90 94 102 12 6 0 -14 -28
-48 -27 -32 -40 -50 -27 -40 12 11 25 16 28 13 8 -8 -95 -126 -145 -167 -33
-27 -34 -29 -13 -30 15 0 55 33 130 109 102 103 153 139 148 103 -2 -8 -12
-23 -23 -32 -12 -9 -40 -39 -64 -66 -23 -27 -47 -48 -52 -46 -10 3 -67 -46
-67 -58 0 -3 9 -6 20 -7 12 -1 34 14 54 35 18 20 58 63 87 95 48 53 105 95
115 85 2 -2 -19 -21 -47 -42 -27 -20 -71 -64 -97 -97 -46 -60 -94 -95 -112
-84 -5 3 -11 1 -15 -5 -3 -5 -30 -10 -58 -10 -29 -1 -79 -7 -112 -15 -42 -10
-55 -10 -43 -2 10 7 35 24 56 39 38 26 52 48 168 247 57 98 117 168 191 222
42 31 59 54 87 112 39 80 68 113 106 120 14 2 27 5 29 6 2 0 -2 -6 -9 -14z
m343 -126 c-6 -67 -8 -70 -14 -35 -6 34 8 123 18 113 2 -2 0 -37 -4 -78z
m-323 11 c0 -28 -60 -104 -105 -132 -53 -33 -52 -30 17 51 21 24 38 48 38 54
0 10 30 36 43 37 4 0 7 -4 7 -10z m-16 -104 c-55 -75 -72 -82 -23 -9 40 60 61
84 67 79 2 -3 -17 -34 -44 -70z m-287 -242 c-21 -20 -40 -34 -44 -30 -3 3 -4
7 -2 9 2 2 19 15 37 30 48 39 53 33 9 -9z m76 -301 c62 -14 107 -28 100 -30
-7 -3 -40 3 -73 11 -34 9 -69 16 -78 16 -18 1 -82 28 -69 29 5 1 59 -11 120
-26z"/>
<path d="M2557 1829 c7 -7 15 -10 18 -7 3 3 -2 9 -12 12 -14 6 -15 5 -6 -5z"/>
<path d="M670 1812 c-26 -8 -50 -34 -50 -54 0 -10 7 -18 18 -18 16 -1 16 -1 0
-11 -28 -16 -22 -27 32 -60 27 -17 54 -38 60 -47 8 -15 9 -14 10 6 0 12 5 22
10 22 21 0 9 40 -22 71 -33 32 -27 36 23 15 10 -5 19 -1 22 8 4 9 1 16 -5 16
-7 0 -3 6 7 14 18 13 18 14 -1 23 -25 13 -85 22 -104 15z m20 -72 c0 -5 -7 -7
-15 -4 -8 4 -12 10 -9 15 6 11 24 2 24 -11z"/>
<path d="M991 1753 c-16 -86 -43 -164 -72 -204 -24 -34 -40 -161 -21 -173 5
-3 33 2 62 11 38 12 55 23 62 42 11 28 3 148 -11 166 -18 22 -21 71 -11 142
15 94 8 106 -9 16z"/>
<path d="M2130 1816 c0 -2 7 -7 16 -10 8 -3 12 -2 9 4 -6 10 -25 14 -25 6z"/>
<path d="M2192 1804 c10 -10 20 -16 22 -13 3 3 -5 11 -17 18 -21 13 -21 12 -5
-5z"/>
<path d="M2528 1813 c7 -3 16 -2 19 1 4 3 -2 6 -13 5 -11 0 -14 -3 -6 -6z"/>
<path d="M2458 1803 c7 -3 16 -2 19 1 4 3 -2 6 -13 5 -11 0 -14 -3 -6 -6z"/>
<path d="M3341 1772 c-11 -22 -35 -59 -53 -83 -19 -24 -44 -60 -57 -79 l-23
-35 32 35 c35 38 113 154 123 183 11 31 -2 18 -22 -21z"/>
<path d="M4495 1782 c22 -22 109 -38 102 -19 -2 7 -19 15 -38 18 -19 3 -45 9
-59 13 -25 8 -25 8 -5 -12z"/>
<path d="M3112 1778 c3 -7 12 -14 22 -14 15 -2 15 -2 0 3 -14 4 -14 7 -3 14
11 7 10 9 -4 9 -11 0 -17 -6 -15 -12z"/>
<path d="M2536 1715 c4 -8 7 -15 9 -15 2 0 5 7 9 15 3 9 0 15 -9 15 -9 0 -12
-6 -9 -15z"/>
<path d="M370 1693 c-31 -8 -109 -15 -177 -16 -68 -1 -123 -5 -123 -9 0 -15
98 -20 165 -10 85 14 295 15 295 2 0 -11 58 -23 91 -18 32 4 -126 69 -166 67
-16 -1 -55 -8 -85 -16z"/>
<path d="M2478 1688 c-14 -14 -15 -18 -4 -18 8 0 17 7 20 16 9 23 4 24 -16 2z"/>
<path d="M2150 1690 c0 -5 5 -10 11 -10 5 0 7 5 4 10 -3 6 -8 10 -11 10 -2 0
-4 -4 -4 -10z"/>
<path d="M2303 1693 c9 -2 23 -2 30 0 6 3 -1 5 -18 5 -16 0 -22 -2 -12 -5z"/>
<path d="M2410 1696 c0 -9 39 -13 51 -5 10 6 4 9 -18 9 -18 0 -33 -2 -33 -4z"/>
<path d="M2370 1675 c10 -12 10 -15 -3 -15 -8 0 -18 6 -20 13 -4 9 -6 9 -6 -1
-1 -18 24 -25 47 -13 19 10 59 2 105 -20 10 -6 17 -5 17 1 0 5 9 10 20 10 11
0 20 5 20 11 0 6 -7 9 -15 5 -10 -3 -15 1 -15 12 -1 15 -2 15 -15 -2 -12 -15
-20 -17 -52 -10 -21 4 -46 7 -55 6 -10 -1 -18 3 -18 8 0 6 -5 10 -11 10 -8 0
-8 -5 1 -15z"/>
<path d="M2110 1671 c0 -6 4 -12 8 -15 5 -3 9 1 9 9 0 8 -4 15 -9 15 -4 0 -8
-4 -8 -9z"/>
<path d="M2390 1635 c0 -19 17 -28 35 -17 13 7 12 10 -10 20 -20 9 -25 9 -25
-3z"/>
<path d="M2588 1631 c24 -14 -75 -32 -168 -30 -48 1 -93 -2 -100 -6 -8 -5 -11
-4 -7 3 5 6 -2 6 -17 -1 -24 -11 -24 -12 -5 -19 11 -4 18 -12 15 -17 -4 -5 6
-19 21 -30 16 -11 33 -25 39 -30 18 -15 172 -25 186 -13 7 6 16 11 21 11 12 2
21 3 32 6 6 1 15 3 22 3 8 2 8 8 0 26 -9 18 -15 22 -24 14 -22 -18 -14 -2 14
28 17 19 28 24 31 16 3 -10 7 -10 18 -1 18 15 18 35 0 42 -10 4 -13 1 -9 -9 7
-18 -5 -17 -37 1 -26 15 -54 21 -32 6z m-6 -123 c-7 -7 -12 -8 -12 -2 0 14 12
26 19 19 2 -3 -1 -11 -7 -17z m38 12 c0 -5 -5 -10 -11 -10 -5 0 -7 5 -4 10 3
6 8 10 11 10 2 0 4 -4 4 -10z"/>
<path d="M150 1620 c8 -5 28 -10 44 -10 15 0 67 -9 115 -21 74 -18 102 -20
209 -14 113 7 124 6 138 -11 9 -11 13 -12 9 -4 -4 8 1 6 9 -4 42 -52 6 -94
-94 -109 -8 -1 -18 -6 -22 -11 -7 -10 -199 33 -209 47 -3 4 -23 9 -44 10 -30
2 -39 7 -40 22 -1 18 5 20 70 19 39 0 84 5 100 12 l30 12 -40 -1 c-39 -1 -146
15 -195 29 -21 6 -23 5 -14 -7 8 -10 9 -35 3 -84 -7 -57 -13 -74 -34 -92 -15
-13 -31 -23 -36 -23 -12 0 -8 32 6 42 6 5 4 8 -5 8 -13 0 -13 1 0 10 12 8 12
10 1 10 -8 0 -20 -8 -28 -17 -8 -10 -12 -12 -8 -5 8 16 4 15 -31 -3 -16 -8
-42 -15 -57 -15 -41 0 -32 -31 13 -43 34 -9 289 -4 490 9 87 6 100 4 140 -16
25 -12 52 -28 60 -35 28 -22 46 -24 47 -4 1 13 -2 17 -10 12 -7 -4 3 10 21 30
17 21 32 42 32 47 0 13 -81 13 -134 -1 -23 -6 -60 -9 -82 -7 l-39 3 56 17 c62
19 86 41 89 78 7 89 -16 110 -119 110 -42 0 -111 -5 -153 -12 -70 -10 -82 -9
-143 10 -67 22 -174 31 -145 12z m323 -185 c80 -19 82 -25 9 -22 -34 1 -62 0
-62 -3 0 -3 -26 -6 -57 -7 -45 -1 -51 1 -28 7 21 5 24 8 10 9 -16 2 -14 4 10
16 38 17 48 17 118 0z"/>
<path d="M2365 1620 c-3 -5 1 -10 10 -10 9 0 13 5 10 10 -3 6 -8 10 -10 10 -2
0 -7 -4 -10 -10z"/>
<path d="M73 1585 c-10 -10 -9 -16 2 -25 9 -7 15 -8 20 0 3 5 12 10 20 10 19
0 46 -30 39 -42 -4 -7 -2 -8 4 -4 22 13 13 45 -18 61 -35 18 -51 18 -67 0z"/>
<path d="M7 1583 c-11 -10 -8 -133 2 -133 5 0 22 5 38 12 15 6 32 10 37 9 5
-1 2 8 -8 21 -9 13 -19 31 -23 41 -4 12 -9 14 -17 7 -9 -7 -11 -2 -8 20 4 28
-6 39 -21 23z"/>
<path d="M2636 1559 c3 -5 10 -7 15 -4 5 4 9 -1 9 -9 0 -9 5 -16 10 -16 17 0
-5 33 -24 36 -9 1 -14 -2 -10 -7z"/>
<path d="M1681 1544 c0 -11 3 -14 6 -6 3 7 2 16 -1 19 -3 4 -6 -2 -5 -13z"/>
<path d="M3110 1475 c-40 -40 -77 -72 -81 -69 -4 2 -26 -19 -49 -48 -45 -57
-88 -90 -103 -81 -6 3 -7 1 -3 -5 15 -24 69 9 152 95 84 86 169 183 162 183
-2 0 -37 -34 -78 -75z m-87 -90 c-3 -9 -8 -14 -10 -11 -3 3 -2 9 2 15 9 16 15
13 8 -4z"/>
<path d="M458 1533 c7 -3 16 -2 19 1 4 3 -2 6 -13 5 -11 0 -14 -3 -6 -6z"/>
<path d="M333 1503 c9 -2 23 -2 30 0 6 3 -1 5 -18 5 -16 0 -22 -2 -12 -5z"/>
<path d="M805 1503 c-48 -10 -51 -14 -22 -29 30 -16 57 -6 57 22 0 14 -1 15
-35 7z"/>
<path d="M2200 1500 c0 -5 5 -10 11 -10 5 0 7 5 4 10 -3 6 -8 10 -11 10 -2 0
-4 -4 -4 -10z"/>
<path d="M2287 1499 c7 -7 15 -10 18 -7 3 3 -2 9 -12 12 -14 6 -15 5 -6 -5z"/>
<path d="M2658 1503 c7 -3 16 -2 19 1 4 3 -2 6 -13 5 -11 0 -14 -3 -6 -6z"/>
<path d="M2320 1495 c0 -10 29 -24 34 -17 3 6 -3 12 -14 15 -11 3 -20 4 -20 2z"/>
<path d="M2626 1492 c-3 -5 1 -9 9 -9 8 0 12 4 9 9 -3 4 -7 8 -9 8 -2 0 -6 -4
-9 -8z"/>
<path d="M2188 1461 c4 -10 7 -11 10 -3 2 7 8 10 12 7 5 -3 11 -2 14 3 2 4 -6
8 -19 8 -16 0 -21 -4 -17 -15z"/>
<path d="M2747 1345 c-29 -26 -28 -32 2 -15 10 5 21 16 25 25 7 19 6 19 -27
-10z"/>
<path d="M2390 1351 c12 -9 13 -11 1 -11 -8 0 -12 -2 -9 -5 3 -3 16 -1 29 4
13 5 19 10 12 10 -6 1 -20 4 -30 7 -15 5 -15 4 -3 -5z"/>
<path d="M355 1320 c-13 -6 -15 -9 -5 -9 8 0 22 4 30 9 18 12 2 12 -25 0z"/>
<path d="M2805 1299 c-4 -11 -4 -23 -1 -26 3 -4 6 1 6 10 0 8 5 17 12 19 9 3
9 6 1 11 -7 4 -14 -1 -18 -14z"/>
<path d="M2856 1306 c2 -6 13 -12 24 -12 23 0 17 12 -9 19 -12 3 -18 0 -15 -7z"/>
<path d="M2540 1295 c-14 -8 -19 -14 -12 -15 7 0 10 -4 7 -10 -8 -13 5 -13 25
0 13 8 12 10 -4 10 -20 0 -20 0 0 15 24 18 16 19 -16 0z"/>
<path d="M3035 1280 c-3 -6 1 -7 9 -4 18 7 21 14 7 14 -6 0 -13 -4 -16 -10z"/>
<path d="M2382 1260 c0 -14 2 -19 5 -12 2 6 2 18 0 25 -3 6 -5 1 -5 -13z"/>
<path d="M2608 1263 c7 -3 16 -2 19 1 4 3 -2 6 -13 5 -11 0 -14 -3 -6 -6z"/>
<path d="M2825 1257 c-10 -8 -14 -17 -8 -20 5 -3 17 3 26 14 19 22 9 25 -18 6z"/>
<path d="M648 1216 c-59 -47 -76 -66 -59 -66 5 0 13 5 16 10 4 6 30 26 60 44
56 36 75 56 53 56 -7 0 -38 -20 -70 -44z"/>
<path d="M2545 1220 c-3 -5 -1 -10 4 -10 6 0 11 5 11 10 0 6 -2 10 -4 10 -3 0
-8 -4 -11 -10z"/>
<path d="M2438 1213 c7 -3 16 -2 19 1 4 3 -2 6 -13 5 -11 0 -14 -3 -6 -6z"/>
<path d="M2668 1213 c7 -3 16 -2 19 1 4 3 -2 6 -13 5 -11 0 -14 -3 -6 -6z"/>
<path d="M2880 1210 c0 -5 5 -10 11 -10 5 0 7 5 4 10 -3 6 -8 10 -11 10 -2 0
-4 -4 -4 -10z"/>
<path d="M3116 1203 c-6 -14 -5 -15 5 -6 7 7 10 15 7 18 -3 3 -9 -2 -12 -12z"/>
<path d="M2718 1203 c7 -3 16 -2 19 1 4 3 -2 6 -13 5 -11 0 -14 -3 -6 -6z"/>
<path d="M2498 1193 c7 -3 16 -2 19 1 4 3 -2 6 -13 5 -11 0 -14 -3 -6 -6z"/>
<path d="M2818 1093 c7 -3 16 -2 19 1 4 3 -2 6 -13 5 -11 0 -14 -3 -6 -6z"/>
<path d="M0 1055 c0 -17 7 -17 303 -15 98 1 186 4 194 7 40 15 -34 22 -259 22
-205 1 -238 -1 -238 -14z"/>
<path d="M84 1019 c-3 -6 -22 -9 -42 -7 -26 2 -37 -1 -40 -12 -2 -13 14 -15
110 -12 95 3 110 1 96 -10 -11 -8 -22 -42 -32 -96 -7 -45 -19 -89 -26 -97 -7
-8 -29 -15 -50 -15 -72 0 -100 -10 -100 -37 0 -21 3 -23 33 -19 17 3 53 8 79
11 l47 6 -13 -33 c-14 -34 -28 -98 -22 -98 2 0 16 6 31 14 36 19 57 51 66 100
3 23 12 73 18 111 7 39 14 81 16 94 11 62 46 81 154 81 31 0 63 5 71 11 11 7
-18 8 -95 4 -148 -9 -218 -8 -260 4 -23 6 -37 6 -41 0z m140 -157 c-9 -21 -14
-51 -15 -77 0 -11 -7 -30 -15 -42 -8 -13 -11 -23 -6 -23 11 0 3 -58 -9 -66
-12 -7 -4 97 11 146 5 19 10 47 10 62 0 15 5 39 12 55 l12 28 4 -33 c2 -19 0
-41 -4 -50z m-79 -112 c-3 -5 -34 -9 -68 -8 l-62 1 65 7 c36 4 66 7 68 8 2 1
0 -2 -3 -8z"/>
<path d="M2800 990 c0 -5 -13 -10 -29 -10 -42 0 -47 -17 -9 -26 18 -4 37 -7
42 -6 17 5 46 -10 40 -20 -4 -6 0 -6 13 1 11 6 24 7 28 3 5 -4 5 -2 1 5 -4 7
-14 9 -24 6 -12 -4 -14 -3 -7 5 6 6 24 12 40 14 19 2 30 9 30 18 0 11 -15 16
-62 18 -39 2 -63 -1 -63 -8z"/>
<path d="M0 957 c0 -20 138 -150 151 -142 11 8 -13 38 -85 104 -50 47 -66 56
-66 38z"/>
<path d="M283 899 c-13 -49 -43 -200 -43 -212 0 -4 4 -7 9 -7 9 0 55 233 49
252 -2 6 -9 -8 -15 -33z"/>
<path d="M2637 919 c7 -7 15 -10 18 -7 3 3 -2 9 -12 12 -14 6 -15 5 -6 -5z"/>
<path d="M2788 863 c6 -2 18 -2 25 0 6 3 1 5 -13 5 -14 0 -19 -2 -12 -5z"/>
<path d="M189 595 c-41 -25 -100 -52 -131 -61 -53 -15 -58 -19 -58 -44 0 -28
1 -28 54 -25 50 3 136 36 136 53 0 4 10 18 23 32 31 34 61 80 55 85 -2 3 -38
-15 -79 -40z"/>
<path d="M17 416 c-9 -7 -17 -24 -17 -36 0 -23 0 -23 30 6 16 16 30 32 30 37
0 11 -23 8 -43 -7z"/>
<path d="M92 53 c-90 -4 -92 -4 -92 -28 l0 -25 108 0 c96 0 111 2 127 20 10
11 16 22 14 24 -9 8 -69 12 -157 9z"/>
</g>
</svg>
